<?xml version="1.0" standalone="no"?>
<!DOCTYPE svg PUBLIC "-//W3C//DTD SVG 20010904//EN"
 "http://www.w3.org/TR/2001/REC-SVG-20010904/DTD/svg10.dtd">
<svg version="1.0" xmlns="http://www.w3.org/2000/svg"
 width="700.000000pt" height="700.000000pt" viewBox="0 0 700.000000 700.000000"
 preserveAspectRatio="xMidYMid meet">
<metadata>
Created by potrace 1.14, written by Peter Selinger 2001-2017
</metadata>
<g transform="translate(0.000000,700.000000) scale(0.100000,-0.100000)"
fill="#000000" stroke="none">
<path d="M3317 6943 c-2 -1 -190 -16 -214 -16 -24 -1 -13 -13 25 -31 55 -26
160 -95 165 -110 10 -24 -23 -72 -71 -103 -131 -86 -296 -68 -408 44 -47 46
-60 78 -50 118 4 14 4 25 2 25 -26 0 -317 -79 -328 -89 -4 -4 -1 -38 7 -76 16
-81 23 -138 30 -250 9 -153 16 -238 20 -275 7 -56 -13 -56 -82 0 -96 78 -212
244 -250 360 -14 40 -28 112 -25 123 3 11 -11 8 -54 -12 -21 -10 -56 -26 -76
-36 -21 -9 -38 -22 -38 -27 0 -13 75 -175 132 -286 55 -106 60 -128 33 -164
-33 -45 -62 -51 -146 -34 -41 8 -87 17 -104 20 -16 3 -39 8 -50 10 -37 7 -99
16 -153 21 -75 8 -169 39 -224 74 l-47 30 -88 -70 c-48 -39 -89 -78 -91 -87
-2 -10 -10 -36 -18 -58 -12 -35 -23 -45 -64 -63 -27 -12 -58 -21 -69 -21 -17
0 -150 -125 -159 -148 -1 -4 10 -9 25 -10 41 -3 141 -54 200 -100 72 -57 110
-118 154 -243 40 -117 111 -235 210 -349 31 -37 54 -72 50 -78 -3 -6 -31 -23
-61 -38 -69 -35 -149 -36 -217 -3 -43 21 -220 164 -253 205 -8 11 -31 39 -51
64 -89 111 -155 288 -145 393 3 32 8 63 12 70 24 43 -104 -117 -188 -234 -66
-93 -71 -103 -54 -113 200 -119 416 -308 510 -444 28 -41 28 -43 10 -57 -29
-21 -128 -46 -176 -44 -62 2 -154 26 -223 59 -95 44 -240 156 -275 213 l-18
28 -60 -123 c-33 -67 -59 -124 -58 -126 2 -1 15 2 29 9 16 7 46 9 81 5 31 -4
59 -8 63 -8 20 -1 81 -39 87 -53 19 -51 -25 -124 -91 -151 -46 -20 -134 -17
-193 5 l-50 19 -44 -137 c-41 -125 -78 -258 -89 -321 -3 -14 -8 -36 -11 -50
-8 -36 -15 -73 -31 -180 -22 -152 -24 -176 -31 -347 l-7 -162 29 -12 c42 -16
171 -19 220 -4 23 7 63 27 88 45 110 75 334 162 476 184 173 27 543 28 675 1
11 -2 43 -7 70 -10 247 -28 706 -133 950 -217 253 -87 433 -289 512 -575 24
-86 27 -116 27 -248 1 -169 -12 -232 -72 -370 -109 -252 -291 -410 -567 -493
-196 -59 -368 -103 -490 -128 -11 -2 -31 -6 -45 -9 -104 -21 -232 -40 -395
-60 -150 -18 -438 -24 -543 -11 -111 13 -365 78 -391 99 -22 18 -12 -1 44 -86
l50 -77 75 0 c41 -1 91 -3 110 -5 19 -3 46 -6 60 -8 53 -7 190 -42 190 -48 0
-4 -18 -23 -40 -42 -34 -29 -108 -64 -214 -101 -18 -6 -17 -9 13 -38 l32 -31
77 23 c193 56 239 66 542 115 85 14 167 28 183 30 38 7 74 12 202 31 17 2 41
6 55 9 187 34 254 25 285 -36 24 -46 8 -91 -64 -181 -124 -156 -230 -229 -638
-436 -51 -25 -93 -50 -93 -53 0 -4 22 -21 49 -38 l49 -32 88 52 c154 89 244
129 278 124 52 -9 85 -26 92 -48 19 -60 -80 -189 -183 -237 -29 -14 -53 -27
-53 -30 0 -3 49 -31 109 -63 l109 -58 89 60 c155 103 331 184 446 205 l38 7
-7 -38 c-18 -103 -104 -274 -175 -349 l-30 -31 97 -32 c53 -18 100 -29 103
-24 4 4 13 28 20 53 18 66 52 153 68 171 7 8 13 20 13 25 0 5 21 41 48 79 274
407 335 511 524 890 91 183 163 303 188 313 4 1 10 -19 14 -45 3 -26 9 -61 13
-78 14 -69 5 -597 -11 -624 -2 -3 -7 -22 -10 -41 -10 -63 -56 -192 -97 -270
-55 -105 -94 -156 -284 -364 -36 -40 -124 -142 -145 -169 l-20 -25 53 -8 c64
-9 68 -10 141 -19 33 -4 66 -8 75 -10 9 -1 39 32 76 84 133 188 212 246 273
203 70 -50 130 -142 157 -240 l18 -62 91 6 c50 4 97 7 104 7 6 0 12 3 12 7 0
3 -36 97 -81 209 -44 112 -86 231 -93 264 -7 34 -14 147 -15 252 -3 231 -14
461 -25 569 -4 31 18 77 43 93 10 6 34 15 54 18 29 6 40 2 66 -22 31 -28 32
-31 55 -163 4 -24 22 -123 30 -165 2 -11 7 -40 11 -65 4 -25 9 -54 11 -65 3
-11 14 -71 25 -134 11 -63 22 -117 24 -120 1 -3 6 -31 10 -61 17 -149 31 -201
116 -432 28 -76 57 -138 63 -138 6 0 54 9 107 21 l96 22 -23 56 c-31 75 -31
192 0 190 6 0 67 -28 136 -62 83 -41 128 -69 135 -84 7 -17 15 -21 30 -17 28
9 43 24 22 24 -9 0 -36 31 -63 72 -26 40 -108 135 -184 213 -166 169 -223 231
-274 299 -116 155 -152 328 -101 494 l16 52 38 -20 c49 -24 175 -120 266 -201
125 -110 152 -134 191 -163 147 -111 287 -308 379 -531 21 -49 39 -93 42 -97
2 -4 53 17 113 47 77 39 110 60 110 73 0 45 -109 167 -209 234 -68 45 -63 121
13 182 77 62 176 83 271 57 22 -5 52 -12 68 -15 15 -3 35 -7 45 -10 9 -3 28
-7 42 -10 14 -3 50 -10 80 -16 30 -6 69 -14 85 -17 17 -2 56 -14 89 -24 70
-24 62 -28 196 99 84 79 92 89 69 89 -61 1 -221 68 -261 110 l-21 22 29 13
c19 8 68 11 144 9 63 -2 151 -4 194 -5 l80 -1 67 80 c38 44 86 105 107 136
l40 55 -57 -27 c-103 -49 -212 -64 -456 -64 -154 1 -198 3 -330 20 -63 8 -233
45 -310 67 -163 46 -156 44 -390 131 -44 16 -172 85 -231 123 -213 141 -362
374 -389 610 -12 101 -5 523 9 609 24 137 104 299 199 405 137 153 418 303
717 384 95 25 113 29 205 41 28 4 59 8 70 10 11 1 47 6 80 10 33 4 67 9 75 10
9 2 43 6 75 10 33 4 71 9 85 11 259 40 471 13 725 -93 181 -75 257 -98 430
-129 45 -8 108 -46 122 -74 11 -21 16 -21 15 0 -1 47 -14 253 -17 275 -2 17
-6 55 -10 85 -17 151 -88 481 -124 572 l-10 27 -118 0 c-207 -1 -195 -2 -187
23 21 67 96 133 187 164 26 9 47 18 47 19 0 22 -186 414 -205 434 -2 2 -7 -9
-11 -25 -4 -15 -22 -53 -39 -83 -18 -31 -87 -153 -154 -271 -87 -154 -134
-226 -164 -252 -28 -26 -45 -34 -52 -27 -5 5 -11 66 -12 137 -1 122 13 250 48
407 7 33 13 65 15 70 18 94 90 295 125 352 23 37 25 32 -55 135 l-60 76 -15
-29 c-32 -57 -153 -199 -194 -227 -53 -36 -144 -65 -301 -97 -148 -30 -180
-31 -205 -6 -26 26 -20 52 34 167 91 188 188 330 307 445 l68 66 -28 24 c-114
100 -168 144 -240 197 l-83 62 -37 -36 c-44 -43 -145 -92 -206 -100 -41 -6
-48 -4 -75 23 -56 56 -73 200 -33 279 l21 41 -112 57 -112 57 -5 -153 c-5
-139 -12 -188 -27 -188 -12 0 -66 63 -102 119 -47 74 -102 236 -104 308 0 7
-30 22 -66 34 -36 12 -72 24 -79 27 -9 3 -10 -2 -4 -19 5 -13 8 -69 7 -124 -2
-104 -14 -147 -56 -207 l-22 -31 -13 51 c-25 97 -85 191 -195 307 -26 28 -63
67 -82 88 -20 22 -46 40 -63 43 -16 2 -51 9 -79 14 -27 5 -73 12 -101 15 -28
3 -60 7 -71 9 -11 3 -67 8 -124 11 -57 4 -107 9 -112 12 -4 2 -2 -7 5 -22 11
-24 9 -29 -28 -61 -65 -58 -126 -94 -156 -94 -56 0 -97 35 -98 83 0 16 -5 37
-11 48 -7 13 -7 24 -1 32 8 9 2 12 -20 12 -16 0 -30 -1 -31 -2z m739 -120 c26
-32 55 -77 66 -100 16 -36 100 -319 113 -378 2 -11 10 -45 18 -75 18 -64 15
-108 -11 -182 -37 -104 -103 -184 -194 -233 -90 -49 -158 -22 -208 83 -17 34
-43 90 -60 125 -16 34 -75 132 -131 217 -56 85 -106 168 -112 184 -19 56 4 80
343 355 98 79 114 80 176 4z m-1325 -165 c30 -32 101 -142 136 -213 65 -128
105 -273 118 -423 4 -41 8 -83 10 -94 3 -11 7 -46 11 -77 3 -31 8 -65 10 -76
11 -50 3 -136 -16 -200 -12 -38 -25 -74 -30 -78 -8 -9 -324 195 -372 240 -43
41 -53 76 -40 141 7 32 19 91 27 132 17 82 21 229 10 355 -4 44 -8 87 -8 95
-2 33 16 137 28 166 23 56 78 71 116 32z m742 -416 c16 -18 22 -51 32 -186 6
-90 6 -89 115 -261 57 -89 83 -139 84 -164 7 -97 -48 -325 -110 -459 -36 -79
-140 -240 -196 -305 l-33 -38 -103 148 c-57 81 -123 175 -147 208 -24 33 -58
84 -76 113 -37 62 -36 96 5 161 46 73 88 193 112 321 6 32 15 108 19 172 11
155 75 248 202 294 52 18 77 17 96 -4z m1227 -79 c32 -22 54 -48 86 -101 21
-36 24 -48 15 -72 -18 -53 -72 -121 -119 -151 -74 -47 -114 -38 -162 37 -33
52 -30 70 25 190 50 109 96 138 155 97z m885 -54 c16 -16 20 -33 20 -87 0 -57
-5 -78 -33 -134 -19 -36 -56 -88 -83 -116 -54 -53 -139 -105 -165 -100 -10 2
-29 32 -45 73 -45 111 -36 208 27 291 68 88 223 129 279 73z m-3795 -118 c36
-6 88 -13 115 -17 28 -3 59 -8 70 -10 11 -2 49 -9 84 -15 90 -14 156 -45 195
-91 43 -50 54 -93 54 -220 1 -57 4 -120 7 -140 3 -21 7 -53 9 -70 3 -18 8 -54
11 -80 4 -27 5 -48 2 -48 -3 0 -54 24 -114 54 -155 77 -211 99 -313 126 -63
17 -77 19 -145 25 -229 20 -217 11 -223 165 -3 65 0 136 8 173 13 68 44 147
63 160 12 8 64 5 177 -12z m3120 -270 c0 -141 -63 -322 -168 -481 -73 -109
-255 -281 -333 -314 -62 -26 -115 14 -103 79 5 30 86 195 176 360 116 211 188
323 234 364 46 40 129 80 172 80 21 1 22 -2 22 -88z m-766 -122 c19 -22 26
-42 26 -72 0 -57 -36 -184 -64 -227 -54 -85 -84 -190 -90 -325 -3 -65 -12
-121 -26 -160 -32 -90 -79 -304 -105 -480 -9 -55 -17 -111 -20 -125 -2 -14 -7
-50 -10 -80 -3 -30 -8 -62 -10 -70 -3 -13 -10 -71 -20 -165 -4 -39 -53 -374
-59 -401 -2 -12 -7 -39 -10 -60 -9 -58 -53 -94 -114 -94 -87 0 -102 15 -459
495 -360 484 -483 653 -483 663 0 4 77 110 171 235 l170 229 51 -74 c58 -83
195 -256 244 -307 49 -52 93 -49 185 14 127 87 212 213 294 440 20 55 41 109
46 120 5 11 22 56 38 100 88 244 116 308 149 341 42 42 63 43 96 3z m939 -46
c26 -62 16 -224 -22 -358 -18 -60 -33 -118 -36 -128 -2 -9 -25 -70 -51 -134
-77 -194 -151 -319 -293 -495 -47 -60 -89 -108 -94 -108 -4 0 -93 43 -198 95
l-190 96 20 27 c19 26 69 79 251 269 209 218 337 388 465 618 89 161 120 185
148 118z m-2385 -189 c56 -53 102 -101 102 -107 0 -7 -13 -37 -28 -67 -60
-118 -145 -275 -152 -284 -10 -10 -65 158 -75 229 -11 74 -14 218 -5 266 7 39
22 59 45 59 6 0 57 -43 113 -96z m-803 11 c81 -23 137 -53 231 -122 208 -155
340 -330 393 -523 12 -41 21 -81 21 -88 0 -21 -58 -8 -160 36 -119 50 -221
112 -400 243 -85 63 -175 127 -199 144 -101 68 -144 133 -156 231 -7 66 -1 78
52 93 43 13 152 6 218 -14z m4045 -162 c24 -22 35 -46 51 -113 25 -101 25
-122 5 -216 -20 -93 -51 -184 -88 -259 -80 -161 -131 -190 -441 -251 -10 -2
-26 -5 -35 -8 -9 -3 -33 -8 -52 -11 -19 -3 -69 -13 -110 -21 -113 -24 -189 -9
-276 54 -46 34 -74 83 -68 121 3 14 21 41 42 59 20 18 64 57 98 87 34 30 87
93 120 140 139 206 335 352 564 421 106 32 152 31 190 -3z m-4260 -396 c237
-69 395 -275 264 -345 -30 -16 -81 -1 -149 45 -65 44 -100 61 -185 92 -78 29
-228 63 -272 63 -35 -1 -38 1 -38 28 0 70 49 119 130 134 57 10 189 1 250 -17z
m-297 -217 c205 -105 621 -341 644 -366 28 -31 27 -33 -77 -188 -84 -125 -105
-144 -155 -140 -11 0 -60 4 -110 8 -106 8 -126 10 -270 32 -190 30 -440 100
-538 151 -117 62 -216 190 -267 345 -39 121 -17 139 170 139 151 0 209 9 261
44 52 34 95 44 164 39 49 -3 82 -15 178 -64z m-963 -167 c57 -37 95 -111 77
-150 -12 -28 -75 -69 -179 -118 -87 -41 -114 -41 -163 1 -61 52 -24 154 87
239 72 55 124 63 178 28z m6027 -153 c105 -22 319 -90 363 -117 35 -20 53 -67
45 -114 -9 -54 -62 -154 -89 -169 -36 -19 -91 -7 -155 35 -86 56 -229 121
-301 138 -121 29 -189 33 -415 22 -112 -5 -161 -3 -193 7 l-43 13 69 46 c84
55 187 100 302 130 155 40 256 42 417 9z m-5745 -188 c36 -17 122 -58 191 -91
70 -32 142 -69 162 -82 36 -25 47 -58 20 -60 -8 -1 -18 -2 -22 -3 -5 -1 -30
-6 -58 -11 -27 -4 -57 -10 -65 -11 -38 -8 -249 -18 -380 -18 -131 0 -150 2
-192 23 -46 22 -105 78 -127 119 -9 17 -4 26 33 60 85 78 177 113 291 109 68
-2 91 -7 147 -35z m2454 -2229 c-24 -168 -198 -513 -354 -703 -166 -202 -464
-413 -592 -419 -42 -2 -50 2 -73 28 -14 17 -24 38 -22 48 2 10 4 25 4 33 1 9
48 91 105 182 58 92 144 233 192 315 127 215 173 266 344 384 80 56 240 154
260 161 8 3 44 6 78 7 l64 2 -6 -38z m1395 -312 c154 -34 333 -109 455 -192
74 -49 184 -145 184 -159 0 -5 -53 -8 -117 -8 -184 1 -296 36 -465 148 -99 65
-136 102 -144 145 -9 49 2 87 24 81 9 -3 38 -10 63 -15z"/>
</g>
</svg>
