<!--?xml version="1.0" encoding="utf-8"?-->
<!-- Generator: Adobe Illustrator 19.0.0, SVG Export Plug-In . SVG Version: 6.00 Build 0)  -->
<svg version="1.1" id="Yggio_logo" xmlns="http://www.w3.org/2000/svg" xmlns:xlink="http://www.w3.org/1999/xlink" x="0px" y="0px" viewBox="0 0 612 792" xml:space="preserve" stroke="#58666e" stroke-width="40" fill="#58666e" class="" width="500px" height="500px">

<g transform="translate(0.000000,3543.000000) scale(0.100000,-0.100000)">
	<path id="XMLID_46_" class="st0 OLxnYKPV_0" d="M2984.5,34395.4c-7.7-0.4-35.9-1.5-62.6-2.6s-50.1-2.6-51.8-3c-3.9-1.1-4.5-8.2-1.3-17.8
		c6-18.1,14.2-36.8,19.4-43.5c6.9-9.2,40.2-37.4,50.1-42.4c3.7-2.1,6.9-4.3,6.9-5.2c0-0.9,4.9-4.5,10.8-7.8
		c5.8-3.4,13.3-8,16.3-10.3c3.2-2.2,11-6.7,17.6-9.9c6.5-3.2,12.7-6.5,14-7.5c1.1-0.9,8-3.9,15.1-6.7c7.3-2.8,16.3-6.5,20.4-8.6
		c16.4-8.2,67.3-9.9,82.4-2.6c18.7,9,30.8,17.4,43.5,30.3c18.3,18.7,29.9,37.6,39,63.2c2.4,7.3,5.2,14.8,6.2,16.8
		c2.4,5.4,9,33.8,10.3,45l1.1,9.5l-20.2,1.1C3178.8,34394.8,3005.8,34396.3,2984.5,34395.4z"></path>
	<path id="XMLID_45_" class="st0 OLxnYKPV_1" d="M3424.2,34370.9c-2.6-6.9-17-29.9-23.2-36.8c-10.3-11.6-20.6-21.7-22.4-21.7
		c-0.9,0-1.7-0.7-1.7-1.5c0-0.7-7.8-5.4-17.2-10.3c-13.1-6.5-21.7-9.3-35.1-11.8c-34-5.8-37.4-6.5-37.4-8.4c0-0.9-0.7-1.7-1.9-1.7
		c-0.9,0-6.4-1.7-12.1-3.9c-26-9.7-43.7-40.4-38.3-66.3c3.4-16.3,22.6-42.8,37.4-51.6c3.6-2.2,8.2-5.4,10.3-7.3
		c2.1-1.7,8.8-5.8,14.9-9.2s12.1-6.7,13.3-7.7c6.4-5.2,50.8-20.2,70.8-23.9c12.3-2.4,25-5,28.2-6s10.5-1.7,16.3-1.7
		s10.6-0.8,10.6-1.9c0-0.9,1.7-1.9,3.7-1.9s3.7,0.7,3.7,1.7c0,0.9,6.5,2.2,14.6,2.6c15.7,0.9,17.6,1.3,48.4,8
		c22,4.9,54.2,16.6,71.6,26.5c5.6,3.2,13.6,7.5,17.8,9.7c23.9,12.1,49.5,33.6,63.3,52.9c23.7,33.6,30.1,58.3,24.8,95.9
		c-3,21.1-9,37-14.4,38.9c-18.5,6.2-223.8,40.4-242.3,40.4C3426.6,34374.1,3424.7,34372.6,3424.2,34370.9z"></path>
	<path id="XMLID_44_" class="st0 OLxnYKPV_2" d="M2485.5,34339.9c-47.8-9-155.5-34.9-221.2-53.6c-31.8-9-100.1-29.9-101.5-30.8
		c-0.4-0.4-1.9-13.8-3.2-30.1c-1.5-16.4-3.6-35.1-4.5-41.7c-1.1-6.5-2.4-20.6-3.2-31.2c-0.7-10.6-2.1-19.4-2.8-19.4
		c-0.9,0-1.7-6.7-1.7-14.9c0-8.2,0.7-14.9,1.7-14.9c0.9,0,2.2-7.8,2.8-17.2c0.7-9.5,2.6-24.8,3.9-34.2c1.5-9.2,3.2-23.5,3.7-31.8
		c0.7-8.2,2.8-19.6,4.7-25.2s3.9-13.3,4.7-16.8c3-14,9-29.7,18.9-49.5c18.5-37.4,24.7-45.8,31.2-43.3c3.2,1.1,13.6,20,11.2,20
		c-0.9,0-0.6,0.7,0.7,1.5c1.7,1.1,8,20.7,14.4,45.2c0.4,1.5,2.1,6.5,3.6,11.2c1.7,4.7,4.7,15.5,7.1,24.3c2.2,8.8,4.7,16.8,5.4,17.8
		c0.7,1.1,4.5,12,8.4,24.3c3.9,12.3,7.7,23.4,8.4,24.3c0.9,1.1,3.7,7.3,6.5,14c12.5,30.5,26,52.1,43.5,70.3
		c10.6,10.8,50.8,48.4,58.5,54.4c3.7,3,9.2,7.8,12.3,10.8c3.2,3.2,9.5,9,14.4,13.1c28,23.5,43.3,38.9,55.3,54.9
		c7.7,10.5,14.8,19.6,18.5,23.9c4.9,5.8,18.5,34,20,41.3l1.3,6.2l-7.7-0.6C2496.9,34341.6,2490,34340.7,2485.5,34339.9z"></path>
	<path id="XMLID_43_" class="st0 OLxnYKPV_3" d="M2647.1,34324.4c-3.9-1.5-7.5-2.6-7.7-2.6c-1.9-0.2-31.6-25.2-34.6-29.1
		c-2.2-3-4.7-5.8-5.2-6.4c-10.8-9.9-41.3-56.1-54.2-82.2c-17.7-35.5-29.9-68.8-34.6-93.4c-1.5-8.8-4.1-19.6-5.6-24.3
		c-3-9.3-9.2-39.1-13.1-63.7c-1.3-8.8-3.7-20.6-5.4-26.2c-2.8-10.3-6.4-28.4-10.5-54c-1.3-7.7-3.4-17-4.7-20.6
		c-1.5-3.6-3.6-12.3-4.7-19.6c-2.8-17.8-10.8-49.5-13.1-52.1c-0.9-1.3-3.9-9.2-6.5-17.8c-2.8-8.6-7.5-19.6-10.5-24.5
		c-3-4.9-5.4-9.3-5.4-9.9c0-0.8-3.2-6.5-7.1-12.9c-4.1-6.5-8.4-15.1-9.9-19.2c-3.7-10.5-3.4-54,0.6-70.1
		c9.7-40.5,37.2-100.7,62.8-138.1c13.8-20.2,44.1-57,54.9-66.3c5.4-4.9,12.7-10.3,16.1-12c3.2-1.7,6-3.5,6-4.5
		c0-0.7,2.8-2.8,6.2-4.5c3.2-1.7,11.4-6.7,18.1-11c31.8-20.7,65.4-37.2,82-40.2c21.5-3.9,46.3,3.7,65.6,19.8
		c10.1,8.6,32.9,39.8,43.3,59.6c24.5,46.3,37.2,75.1,47.1,107.4c3.4,10.8,6.9,21.7,8,24.3c1.1,2.6,3.7,9.9,5.8,16.3
		c4.1,12,19.4,47.3,23.2,53.8c1.3,2.1,5.8,10.6,10.3,19.2c7.8,15.1,33.4,54.4,46.5,71.4c3.6,4.7,9.7,12.5,13.5,17.6
		c3.7,5,8.4,10.5,10.3,12.1c4.3,3.7,28.6,32.3,35.9,42.2c3,3.9,6.7,8.8,8.4,10.5c8.2,8.8,25.6,32,33.1,44.1
		c8,12.9,12.3,23.2,17.4,40.4c4.3,14.2,4.3,14.6,0.9,26.7c-4.7,17-15.3,38.5-27.7,54.9c-5.8,7.7-13.3,17.8-16.6,22.2
		c-3.4,4.7-13.3,15.7-21.9,24.9c-8.8,9-16.3,17-16.8,17.9c-2.2,3-51.2,47.1-60.2,54c-3.7,2.8-12.5,9.9-19.6,15.7
		c-7.1,5.8-18.3,14.4-25,19.1c-18.7,13.3-44.8,31.2-45.6,31.2c-0.2,0-7.5,4.1-15.9,9.2c-8.2,5-23.4,13.1-33.4,17.9
		c-9.9,4.9-19.4,9.5-20.9,10.5c-1.5,0.9-9.2,5-16.8,9c-17,9-29.3,21.3-37.2,37.4C2664.3,34325.5,2659.4,34328.7,2647.1,34324.4z"></path>
	<path id="XMLID_42_" class="st0 OLxnYKPV_4" d="M3965.6,34241.6c-3.6-11.4-10.3-46-18.7-99.2c-1.9-11.8-4.5-26.3-5.4-32.1
		c-1.1-5.8-3-23-3.9-38.3c-1.1-15.1-2.4-32.7-2.8-38.9c-0.4-6.2-2.2-26-3.9-43.9c-1.7-18.9-2.6-39.8-2.1-49.5
		c0.7-9.9,0-28.4-1.9-44.8c-1.5-15.3-2.8-31.4-2.8-35.5c0.2-9-3-39.2-5.4-52.3c-0.9-5-2.1-12.9-2.6-17.4c-0.4-4.5-1.7-9-2.6-10.3
		c-2.6-3-1.5-58.7,1.5-74.2c6.9-37.4,18.3-40.9,47.8-15.5c35.9,31,65.8,64.5,96,107.6c1.5,2.2,8.2,11.4,14.9,20.4
		c11.2,14.9,20.2,27.8,33.1,47.3c2.6,4.1,10.1,15.1,16.3,24.5c6.4,9.5,13.1,20,15.1,23.4c2.1,3.6,6,10.1,8.8,14.8
		c2.8,4.7,6.4,11.4,8,14.9s4.1,7.7,5.4,9.3c1.5,1.5,9.3,16.1,17.8,32.3c8.4,16.3,16.1,30.8,17,32.7c4.3,7.7,20.2,43.2,22.4,49.9
		c1.3,4.1,3,8.4,3.7,9.3c8.2,11,17.8,72.3,12,77.4c-7.7,6.7-153.4,63.3-228.9,88.9l-34.8,11.8L3965.6,34241.6z"></path>
	<path id="XMLID_41_" class="st0 OLxnYKPV_5" d="M2015.8,34203.3c-53.4-20.7-100.3-40.2-151.7-63.3l-37.7-17l4.5-8.4
		c9.5-18.1,20.9-63.7,15.9-63.7c-1.1,0-1.9-8.2-1.9-22.4c0-13.4,0.7-22.4,1.9-22.4c2.6,0,0.4-15.1-4.7-32.7
		c-11-37.4-13.8-61.8-10.5-91.2c2.4-21.7,6.9-35.9,16.3-51.4c6.7-11.4,20.2-22.8,26.7-22.8c5.8,0,24.1,13.6,31,23
		c10.1,13.5,19.6,28.4,19.6,30.6c0,1.1,0.7,2.4,1.7,2.8c3.4,1.3,54.6,105,57.4,116.4c0.7,3.2,2.4,7.3,3.7,9.3
		c1.3,2.1,5.4,11.8,9.2,21.5c3.9,9.7,7.5,18.7,8.4,19.6c0.7,1.1,4.1,10.3,7.5,20.6c3.4,10.3,7.7,22,9.5,26.2
		c1.9,4.1,4.7,12.9,6.4,19.6c1.7,6.7,6.4,22.2,10.3,34.6c3.9,12.3,8.6,29.1,10.1,37.4c1.7,8.2,3.7,17.9,4.7,21.5
		c3.7,13.3,7.5,28.8,7.1,29.1C2060.8,34220.3,2040.4,34212.9,2015.8,34203.3z"></path>
	<path id="XMLID_40_" class="st0 OLxnYKPV_6" d="M3742.2,34157c-24.7-12.7-33.6-21.5-56.2-54.7c-3.4-5-8.8-12.7-12-16.8
		c-3-4.1-6.4-9.5-7.5-12.1s-3.2-6-4.7-7.5c-1.3-1.5-6.2-9.7-10.6-18.3c-9.2-17.4-10.6-20.4-21.1-38.7c-3.9-7.1-10.3-18.9-14.2-26.2
		c-10.1-19.4-25.6-46.9-45.4-81.5c-6-10.5-13.5-26.3-16.6-35.1c-3-8.8-6.2-16.8-6.9-17.9c-0.7-0.9-3.6-11.6-6.5-23.4
		c-2.8-11.8-7.1-28.2-9.5-36.4c-2.4-8.2-6.5-25-9-37.4c-2.6-12.3-6.4-29.5-8.4-38.3c-3.4-14-10.6-55.3-15.1-84.1
		c-0.7-5.6-3.2-20.7-5.4-33.6c-2.1-12.9-5-33.4-6.7-45.8c-1.5-12.3-4.5-31.6-6.5-43c-1.9-11.2-3.7-26.5-3.7-33.8
		c0-7.3-0.4-13.6-0.9-14.2c-0.6-0.6-1.5-11.4-1.9-24.1c-0.6-12.7-1.7-28.2-2.8-34.4c-1.1-6.2-2.4-18.1-3.2-26.5
		c-0.6-8.6-1.7-15.5-2.6-15.5c-2.4,0-2.1-5.2,0.2-6c1.5-0.4,1.5-7.1,0-21.9c-1.3-13.6-1.3-21.9-0.2-22.4c0.9-0.8,2.1-9.2,2.6-18.9
		c0.7-18.1,8.8-71.4,12.7-85c2.8-10.1,14.2-32.3,20-39.2c6.2-7.5,13.5-12.1,18.7-12.1c4.5,0,31,12.5,40.9,19.2
		c10.6,7.5,29.3,18.9,37.9,23.5c4.7,2.4,8.8,5,9.3,5.8s10.6,7.1,22.4,14c20.9,12.5,42.2,25.6,55.3,34c3.6,2.4,10.1,6.2,14.4,8.4
		c4.3,2.4,9.9,5.8,12.5,7.7c2.6,1.9,14.4,9.7,26.2,17.2c11.8,7.7,22.8,14.9,24.3,16.4s5.4,4.1,8.4,6.2
		c22.2,13.8,53.4,42.8,67.4,62.6c7.8,11,18.7,32.3,21.5,42.8c3.6,12.9,2.6,51.9-1.7,71c-6,25.2-18.9,73.4-20.7,76.8
		c-1.7,3-5,18.9-10.5,50.3c-1.7,9.7-4.3,21.5-5.8,26c-3,9.7-3.4,18.9-0.7,18.9s2.4,10.6-0.2,12.3c-1.5,0.7-1.7,4.9-0.9,12
		c0.7,6.9,0.6,11.4-0.7,12.1c-2.4,1.5-2.4,19.6,0,19.6c1.1,0,1.9,7.5,1.9,18.7s-0.7,18.7-1.9,18.7c-2.2,0-2.6,15.5-0.4,17.6
		c0.7,0.8,1.5,7.1,1.7,13.8c0.2,6.9,0.9,17,1.5,22.4c0.9,6.5,0.6,9.7-0.7,9.7c-2.8,0-2.6,4.5,0.7,21.9c7.5,40,12.5,82.8,9.9,84.8
		c-1.7,1.1,0.7,38.1,4.3,66c2.1,17.2,1.7,24.3-3.2,60c-4.7,33.6-7.7,46-15.5,62.6c-9.5,20.7-20.2,33.8-35.9,44.1
		C3759.7,34162.4,3754.7,34163.5,3742.2,34157z"></path>
	<path id="XMLID_39_" class="st0 OLxnYKPV_7" d="M4358,34085.1c-0.9-5-2.4-13.5-3.2-18.9c-0.6-5.4-2.1-10.3-2.8-10.8c-0.9-0.6-1.7-2.4-1.7-4.1
		c0-1.9-2.8-9.2-6.4-16.4c-4.9-10.1-11-18.1-27.1-34.8c-25.8-26.9-27.1-29.9-25.4-58.5c0.6-11.2,0.2-27.3-0.7-35.5
		c-1.3-10.6-1.1-15.3,0.4-16.3c3.4-2.1-2.1-25.4-8.4-37c-6.2-10.8-15.5-23.4-24.8-32.9c-5.6-5.6-30.8-32.7-39-41.9
		c-15.1-16.8-34.8-45.4-38.5-56.2c-1.5-3.9-1.9-9-1.1-12c1.7-6.9,55.3-59.6,65.6-64.5c14.2-6.9,46.1-3.9,68.4,6.2
		c3.5,1.7,14.8,5.2,25,7.8c10.3,2.8,24.1,6.9,30.8,9.3c20.7,7.3,105.8,26.9,149.5,34.6c12.3,2.2,26.2,2.4,26.2,0.6
		c0-2.2,81.1-0.6,82.4,1.7c0.7,1.1,4.1,1.5,8.4,0.7c4.1-0.7,17.4-0.4,29.7,0.6c20.4,1.7,25,2.8,49.9,12.1
		c24.1,9.2,52.7,23,61.3,29.7c1.5,1.3,5.8,3.7,9.3,5.6c10.8,5.4,52.3,39.1,52.3,42.4c0,2.6-79,60.3-133.6,97.5
		c-62.2,42.4-150,96.6-219.4,135.1c-35.9,19.8-121.4,64.5-123.9,64.5C4360.6,34093.8,4359.1,34089.9,4358,34085.1z"></path>
	<path id="XMLID_38_" class="st0 OLxnYKPV_8" d="M1594.6,34001.2c-74.5-43.7-142.2-87.1-208.9-134.2c-25-17.6-31.6-23.2-30.5-25.4
		c1.5-2.6,27.3-28.6,43.9-43.9c4.1-3.9,10.5-9,14-11.2s7.7-5.6,9.2-7.3c1.3-1.7,3.6-3,4.7-3.2c1.1,0,5.8-3,10.5-6.4
		c8-6.2,50.6-30.8,52.9-30.8c0.7,0,6-2.2,12-5c22-9.9,61.7-19.2,83.5-19.2c19.8,0,44.3,8.4,53.1,18.5c6,6.9,16.3,29,21.7,46.3
		c16.3,52.5,18.3,63.7,18.5,101.5c0,36.8-2.1,47.6-18.7,96.2c-4.5,12.9-22.4,47.6-24.7,47.6
		C1635.2,34024.7,1616.7,34014.1,1594.6,34001.2z"></path>
	<path id="XMLID_37_" class="st0 OLxnYKPV_9" d="M3110.6,33802.4c-8.2-1.3-22.4-8.8-28.4-15.3c-8.8-9.3-19.4-32-20.9-44.5
		c-0.9-6.7-1.1-12.9-0.7-13.8c3.6-5.8,6.2-66.9,3.9-84.8c-0.7-5.6-0.6-14.2,0.6-19.2c1.7-7.3,1.3-11.6-1.1-21.5
		c-1.9-7.3-2.6-14.6-1.7-18.1c0.6-3.2,0.2-17.4-1.3-31.6l-2.2-25.8l-7.1-4.5c-3.7-2.6-9.7-8.2-13.1-12.5
		c-7.8-9.9-17.9-20.2-41.5-41.9c-14-13.1-19.4-19.4-24.1-29c-3.2-6.7-10.5-17.6-16.1-24.1c-5.8-6.7-13.6-19.2-17.8-28.2
		c-4.1-8.8-10.3-19.2-13.8-23.4c-8.6-10.1-18.3-30.5-22.8-47.8c-1.9-7.8-6.5-20-10.1-27.1c-3.5-7.1-8.2-20.2-10.5-29.1
		c-5-19.2-4.3-23,11.4-67.8c12.9-36.8,20.2-62,20.2-70.4c0-4.5,1.3-12,2.6-16.6c3.7-12,3.7-68,0-80c-1.3-4.7-2.6-12.7-2.6-17.6
		c0-5-0.9-12.5-2.1-17c-1.9-7.3-1.5-8.6,4.1-18.1c3.2-5.6,9.2-14.8,12.9-20.4s8.8-14,11.2-18.7c2.4-4.7,6.9-11.8,10.3-15.9
		c3.4-4.1,8-11.2,10.3-15.9c2.4-4.7,6.5-11.4,9.3-14.9c2.8-3.6,7.1-10.3,9.3-14.9c2.4-4.7,6.9-11.8,10.3-15.9
		c3.4-4.1,8.2-11.6,10.8-16.8c2.6-5,7.3-12.7,10.6-16.8s8-11.6,10.6-16.8c2.6-5,6.9-11.8,9.3-14.8c2.4-3,6.7-9.7,9.3-14.9
		s7.3-12.3,10.1-15.7c3-3.4,7.5-10.3,10.1-15.5c2.6-5,7.8-13.3,11.6-18.1s8-11.8,9.5-15.3c1.5-3.6,5-9.3,8-12.7s7.5-10.3,10.1-15.5
		c2.6-5,7.8-13.3,11.6-18.1c3.7-4.9,7.8-11.8,9.3-15.3c1.5-3.4,5.6-9.7,9-14c3.4-4.1,7.8-11,10.1-15.5c2.2-4.5,7.7-12.9,12-18.9
		c4.3-5.8,9.5-14.2,11.4-18.5s4.1-7.8,4.7-7.8s3.2,3.7,5.6,8.4s7.7,12.1,11.4,16.4s8.4,10.8,10.3,14.4c1.9,3.6,6.5,10.3,10.3,14.9
		c3.7,4.7,8.4,11.2,10.1,14.4c1.7,3.4,6.5,10.5,11,15.9c4.3,5.4,10.3,13.8,12.9,18.5c2.8,4.7,6.4,9.7,8,11c1.7,1.3,6.2,8,10.3,14.8
		c3.9,6.7,9,14,11.2,16.1c2.2,2.1,7.3,9.2,11.2,15.9c3.9,6.7,8.8,13.8,11,15.7c2.2,2.1,6.7,8.8,10.3,14.9
		c3.6,6.4,8.6,13.5,11.4,16.1c2.8,2.6,6.7,8,8.8,12.1c2.1,4.1,6.9,11.2,10.6,15.9s9.3,12.5,12.1,17.6c3,5,8,12.1,11.2,15.9
		c3.4,3.7,8.4,10.8,11.2,15.9c3,5,8,12.1,11.4,15.9c3.4,3.7,7.5,9.7,9.3,13.3c1.7,3.6,6.4,10.3,10.1,14.9
		c3.7,4.7,9.3,12.5,12.1,17.6c3,5,8,12.1,11.4,15.9c3.4,3.7,7.5,9.7,9.3,13.3c1.7,3.6,6.4,10.3,10.3,14.9
		c3.7,4.7,8.2,11.2,10.1,14.4c1.7,3.4,6.7,10.6,11.2,16.3c4.5,5.4,9.7,12.7,11.4,16.1c1.9,3.4,7.1,10.3,11.8,15.3l8.4,9l-5.6,8
		c-3.2,4.3-6.7,11.2-8,15.3c-3,9.7-11.2,26.2-17.2,34.9c-2.6,3.9-6.5,12.7-8.8,19.6c-2.1,7.1-6.7,17.4-10.5,23
		c-8,12.9-10.8,18.1-17,34.6c-2.8,7.3-8.8,18.5-13.3,25s-10.3,17.4-12.9,24.1c-2.6,6.9-8.6,18.3-13.6,25.6
		c-5,7.5-10.5,17.6-12.1,22.6c-1.7,5-5.6,13.6-8.6,19.2c-4.1,7.5-5.6,12.5-5.6,19.8c0,5.2-0.7,10.3-1.7,11.4
		c-2.2,2.2-3.9,28.8-1.9,28.8c0.9,0,1.7,2.6,1.7,5.6c0,3.2-0.7,5.6-1.7,5.6c-2.6,0-6.9,49.1-4.3,50.1c3,0.9,2.8,11-0.4,12.9
		c-3.2,1.9-5.8,39.2-2.8,40.2c1.3,0.4,1.3,5.4-0.2,15.5c-1.1,8.2-2.8,24.7-3.7,36.4c-0.9,11.8-3,26.2-4.7,31.8
		c-1.5,5.6-4.5,20.7-6.4,33.6c-6.4,40-26.9,92.9-46.1,117.7c-14.9,19.6-39,41.7-62.4,57.4c-5.6,3.7-12,8.4-14,10.1
		c-2.1,1.9-8.4,5.6-14,8.6c-5.6,3-12.3,6.7-14.9,8.4c-2.6,1.7-11.4,5.8-19.6,9.2c-8.2,3.2-15.9,6.5-16.8,7.5
		c-1.9,1.3-8.2,2.4-23.4,4.3C3120.2,33803.3,3114.7,33803.1,3110.6,33802.4z"></path>
	<path id="XMLID_36_" class="st0 OLxnYKPV_10" d="M2082.1,33724.1c-9-3.2-35.9-17.2-46.5-24.5c-11.2-7.7-29.7-26.3-37.6-38.1
		c-2.6-3.9-6.5-9.3-8.8-12.1c-2.2-2.8-8.2-13.8-13.5-24.7c-17.4-36.1-17.2-56.6,0.9-91c5.6-10.6,11-20.2,12-21.5s8.8-11.6,17.2-23
		c8.6-11.4,18.1-23.5,21.1-27.1c12.7-14.2,60-50.6,74.7-57.4c32.9-15.3,34.4-15.3,53.1-3.4c15.1,9.7,36.4,30.1,38.5,36.8
		c0.7,2.4,3,6.4,4.7,8.8c6.9,8.6,16.8,50.3,16.8,69.9c0,24.1-10.6,71.6-22,98.8c-9.7,22.8-18.5,38.9-34.4,62.4
		c-16.4,24.5-16.6,24.7-35.7,36.4c-13.5,8.2-18.3,10.1-26.2,10.5C2091,33725.4,2084.7,33725,2082.1,33724.1z"></path>
	<path id="XMLID_35_" class="st0 OLxnYKPV_11" d="M1345,33691.6c-23.7-6.2-43.5-22.8-53.2-44.7c-4.7-10.8-7.8-34.4-6.4-49.1
		c1.1-12.5,8.8-48.2,12.7-59.8c1.5-4.1,5.2-16.1,8.6-26.5c3.2-10.5,7.1-20,8.6-21.3c1.5-1.1,2.6-3.7,2.6-5.6
		c0-8.6,27.3-55.5,52.3-90.4c37.6-52.1,85-89.7,137.5-108.4c16.4-5.8,18.9-5.8,28.8-0.2c5.4,3.2,10.5,8.6,16.6,18.1
		c9.7,15.3,23.4,48.6,25.4,61.5c3.2,22.4,7.5,42.2,9.2,43.3c2.8,1.9,2.8,80.3,0,83.9c-1.1,1.5-3,7.3-4.1,12.9
		c-1.3,5.6-3.5,16.1-5,23.2c-3,13.6-17.2,47.8-19.8,47.8c-0.9,0-1.7,0.9-1.7,2.1c0,3.6-16.3,27.3-22.8,33.1
		c-11.6,10.7-40.5,33.1-50.4,39.2c-23.9,14.8-57.7,29.5-88.4,38.9C1382.4,33693.4,1356.4,33694.4,1345,33691.6z"></path>
	<path id="XMLID_34_" class="st0 OLxnYKPV_12" d="M4968.2,33690.8c-0.6-0.9-1.5-4.9-2.2-9c-0.7-4.1-2.4-8.6-3.5-10.1c-2.6-3.4-2.6-39.8,0-43.3
		c1.1-1.5,3.9-7.7,6.5-13.8c8-20.4,18.7-33.4,45.8-56.1c8.6-7.1,39.6-27.1,42.2-27.1c0.6,0,7.5-2.8,14.9-6.4
		c23.7-11,31.8-12.7,62.2-13.6l28-0.7l-45.8,45.2C5056.4,33615.2,4970.1,33693.8,4968.2,33690.8z"></path>
	<path id="XMLID_33_" class="st0 OLxnYKPV_13" d="M1024.6,33567.5c-57.7-55.9-141.6-145.9-195.8-210.4l-18.5-22.2l2.2-9.7
		c1.3-5.2,3.2-11.4,4.3-13.3c1.1-2.1,3.4-7.8,5-13.1c1.7-5,4.5-12,6.2-15.1c1.7-3.4,6.4-12.1,10.3-20c3.9-7.7,8.6-15.5,10.5-17.6
		c1.7-1.9,4.1-4.9,5-6.4c3-5.2,20-24.5,29.5-33.3c18.1-17,53.4-53.8,66.5-69.3c34-40.5,37.6-43.7,61.7-55.3
		c7.7-3.7,16.1-7.8,18.7-9.2c7.8-4.1,28.6-9.9,40.2-11.2c6.2-0.7,17.7-2.4,25.8-3.9c8.2-1.5,15.7-2.1,16.8-1.3
		c0.9,0.6,1.3,0.2,0.7-0.8c-0.7-1.3,5.4-2.8,17-4.3c29.7-3.7,50.6-7.3,70.4-12.1c10.3-2.6,27.1-6.4,37.4-8.4s25.4-5.8,33.6-8.4
		c8.2-2.4,20.7-5.4,27.7-6.5c6.9-1.1,16.4-3.2,20.9-4.7c14.4-5,74-14.2,83.1-13.1c12.9,1.7,25.6,10.7,30.3,20.9
		c3,6.9,3.5,10.7,2.4,20.4c-1.5,13.6-4.5,25.6-10.5,40c-9.2,23-13.5,33.1-17.6,42c-17.2,37.7-24.7,53.3-28.6,59.4
		c-4.5,7.5-8.8,15.1-20.6,36.8c-5.8,10.8-21.1,38.3-33.8,60.3c-3.9,7.1-8.4,14.2-20,32.1c-1.9,3.2-3.9,6.5-4.5,7.5
		c-0.6,1.1-9.3,14.4-19.6,29.7s-20.7,30.8-23.4,34.8c-8,12-33.8,47.3-38.9,53.3c-1.7,2.1-6.4,8.2-10.3,13.8
		c-3.9,5.4-10.3,13.5-14.4,17.8c-3.9,4.1-9.2,10.3-11.4,13.3c-2.4,3.2-5.2,6.5-6.4,7.7c-0.9,1.3-5.2,6.5-9.3,12
		c-9.7,12.7-42.2,45.2-57,57c-6.4,5.2-13.8,11.2-16.6,13.4c-19.1,15.9-34.9,28.6-35.9,28.6
		C1057.4,33598.7,1042.3,33584.7,1024.6,33567.5z"></path>
	<path id="XMLID_32_" class="st0 OLxnYKPV_14" d="M4630.8,33579.8c-2.4-0.9-10.3-2.6-17.7-3.7c-7.3-1.1-16.8-3.2-21.1-4.5
		c-12.3-4.1-36.6-6.7-38.3-4.1c-1.1,1.7-1.5,1.7-1.5-0.2c0-1.7-3.2-2.2-11.6-2.1c-6.5,0.2-13.1-0.2-14.6-0.7
		c-1.5-0.6-8.2-1.5-14.9-2.1c-6.7-0.6-19.6-2.4-29-4.1c-26-4.5-32.7-5-32.7-2.8c0,1.1-1.7,2.1-3.7,2.1c-2.1,0-3.7-0.8-3.7-1.7
		c0-2.8-15.3-4.3-17.2-1.7c-1.5,1.9-2.1,1.9-2.8,0.2c-0.4-1.3-3.9-2.4-7.7-2.4s-17.4-1.7-30.3-3.6c-12.9-2.1-31.4-4.5-41.1-5.6
		c-9.9-1.1-27.1-3.9-38.3-6.5c-11.4-2.4-25.6-5-31.8-5.8c-6.2-0.7-15.3-2.8-20.6-4.7c-5-1.9-17.4-5-27.1-7.3s-21.9-6.2-27.1-8.6
		c-5-2.4-14.8-7.1-21.5-10.1c-14.4-6.7-31.4-18.7-43-30.3c-18.5-18.3-47.6-54.4-58.9-72.9c-7.1-11.6-21.3-41.5-23.4-48.8
		c-1.5-6-2.1-15.9-1.5-29c0.7-19.1,1.3-20.9,7.8-33.3c3.9-7.1,7.7-13.8,8.4-14.9c5-6.5,14.6-38.3,11.8-38.3
		c-0.7,0-1.3-15.5-1.3-34.6c0-19.1,0.7-34.6,1.5-34.6c2.2,0-0.6-12.1-7.3-31.8c-33.1-96.8-38.9-122.4-31.8-140.9
		c6.9-18.1,19.4-15.9,78.1,13.8c21.9,11.2,46.1,23.7,53.8,27.8c7.7,4.1,21.1,11.4,29.9,16.1c8.8,4.7,17.2,9.2,18.7,10.3
		c1.5,0.9,8.2,4.3,14.9,7.5c6.7,3.2,20.9,10.5,31.8,16.1c10.8,5.6,22.6,11.4,26.3,12.9c3.7,1.3,12.9,5.4,20.6,9
		c34.4,16.3,48.2,22.4,56.8,25.6c5.2,1.9,16.4,6,25.2,9.3c8.8,3.4,19.1,6.7,22.8,7.7s11.2,3.4,16.6,5.4c10.3,4.1,46.9,8,48,5.2
		c0.9-2.1,31.6-1.9,32.5,0c0.9,2.8,46.5-0.9,57.5-4.7c8.2-2.6,16.1-3.4,38.3-3.4c27.1,0,28.6,0.2,45.8,6.4
		c23.5,8.2,29.5,11.4,38.9,20.6c15.5,15.1,19.8,25,22.8,54.4c1.1,10.8,3,20,3.9,20.2c2.2,0.9,2.2,24.7,0,24.7c-0.9,0-2.2,5.6-3,12.7
		c-0.7,6.9-1.5,15.3-1.9,18.7c-0.4,4.3,0.2,6,2.1,6c1.5,0,2.6,1.3,2.6,2.8c0,1.5-1.3,2.8-2.8,2.8c-2.2,0-2.8,2.8-2.8,14.6
		c-0.2,23.5-3.4,59.6-7.5,84.4c-2.1,12.9-5,30.6-6.5,39.4c-6.4,37.7-19.1,78.7-29.5,95.1c-2.2,3.6-5.2,8.6-6.5,11.2
		C4658.6,33578.5,4644.2,33585.3,4630.8,33579.8z"></path>
	<path id="XMLID_31_" class="st0 OLxnYKPV_15" d="M1880.9,33422.1c-9.5-8-13.3-18.5-14.9-40.5c-0.6-9.2-1.9-16.4-2.6-16.4
		c-0.9,0-1.7-10.1-1.7-22.4s0.7-22.4,1.7-22.4c0.7,0,2.1-6.2,2.6-13.5c0.6-7.5,3.4-24.1,6-37c2.8-12.9,6.2-28.8,7.5-35.5
		c5.2-25.8,16.4-63.9,27.1-91.6c2.2-5.6,5.6-14.6,7.5-19.8c6.4-17.8,53.1-113.6,58.7-120.3c1.3-1.5,5.2-7.8,8.6-14
		c3.5-6.2,6.7-11.6,7.5-12.1c0.6-0.6,3.5-5,6.5-10.3c11.4-20,46.1-69.5,65.4-93.4c7.3-9.2,18.5-23.2,25-31.6
		c16.4-20.7,20.4-24.9,60-64.6c31.4-31.6,39-38.7,57-52.9c38.1-30.1,75.5-53.4,100.9-62.8c6.2-2.4,12.7-5,14.6-6
		c1.9-1.1,9.9-2.8,17.7-3.9c17.4-2.4,26.2-0.6,36.4,8c16.4,13.6,19.8,33.8,11.8,71.9c-2.8,13.3-7.1,29.5-9.5,36.2
		c-2.4,6.7-4.9,14.2-5.6,16.8c-1.3,5-4.9,14-11.2,29c-2.2,5.2-5.2,12.7-6.5,16.8s-4.5,11.2-7.1,15.9c-2.4,4.7-4.5,8.6-4.5,8.8
		c0.7,1.9-57.4,120-61.3,124.8c-0.7,1.1-5,8.6-9.3,16.8c-4.5,8.2-8.6,15.9-9.3,16.8c-0.9,1.1-4.9,8.2-9,15.9
		c-3.9,7.7-16.1,28.8-26.9,46.7c-10.8,17.9-20.9,35.3-22.8,38.3c-1.7,3.2-4.5,7.8-6.4,10.6c-1.7,2.8-6.5,10.3-10.5,16.8
		c-19.6,31.8-25.6,40.9-39.4,61.8c-8.2,12.3-16.6,25.2-18.7,28.2c-22.4,34.8-30.3,45.4-43.3,60.5c-12.9,14.8-44.3,46.1-56.6,56.4
		c-6.7,5.4-12.9,11-14,12.1c-0.9,1.1-7.3,5.8-14,10.3c-6.7,4.7-12.5,8.8-13.1,9.5c-2.4,3.2-29.5,21.1-41.1,27.3
		c-4.7,2.4-10.5,5.8-13.1,7.1c-2.6,1.5-7.7,3.9-11.2,5.4C1893.6,33430.9,1891.3,33431.1,1880.9,33422.1z"></path>
	<path id="XMLID_30_" class="st0 OLxnYKPV_16" d="M5231.3,33417.5c-24.9-9-73.2-30.8-88.7-40c-2.6-1.5-8.8-4.7-14-6.9c-5-2.2-12-6.2-15.3-8.4
		c-3.2-2.4-6.5-4.5-7.5-4.5c-0.7,0-7.7-4.3-15.3-9.3c-7.7-5-15.7-9.9-17.8-10.5c-2.2-0.7-4.3-1.9-4.9-2.4c-0.6-0.7-5.6-4.1-11.2-7.7
		c-38.7-23.9-62.8-45.2-77.5-68.4c-6.2-9.5-27.1-51.4-27.1-54c0-0.7-2.8-8.8-6.4-17.8c-3.5-8.8-8.2-23.2-10.5-31.6
		c-2.1-8.4-4.7-16.8-5.8-18.5c-0.9-1.7-4.7-13.6-8.2-26.5c-6.9-24.8-22-70.1-24.8-73.6c-0.9-1.1-2.8-5.4-4.1-9.5
		c-5.8-19.1-38.1-79.8-48.8-91.6c-1.7-2.1-10.3-11.8-18.7-21.5c-8.6-9.7-22.8-25.2-31.6-34.4c-8.8-9.2-19.6-20.6-24.3-25.4
		c-4.7-4.7-12-12.9-16.3-17.9c-4.1-5-10.1-11.8-13.1-14.9c-8-8.8-14.2-15.9-20.2-24.1c-3.2-4.1-6-7.8-6.5-8.4
		c-2.6-2.6-13.1-18.7-16.6-25.6c-2.1-4.3-3.9-11.2-3.9-15.1c0-6.2,1.1-8.4,7.5-14c5.8-5.4,12.5-8.4,34-15.1
		c14.8-4.7,34.8-9.7,44.5-11.4c9.7-1.5,21.1-3.9,25.2-5.4c22.2-7.8,82.8-8.4,103.7-0.9c5.6,2.1,15.7,5.2,22.4,7.3
		c49,14.4,116.6,67.1,166.8,130.2c9.7,12.1,28,33.8,40.7,48.2c12.9,14.4,28.2,32.5,34.4,40.2c6,7.7,14.4,17.9,18.5,22.8
		c16.3,18.7,29.1,34.8,39.4,49.1c12.3,17.2,30.8,45.8,30.8,47.8c0,0.8,3,6.5,6.7,13.1c3.5,6.5,8.2,16.4,10.5,22.2
		c11.4,31.6,14.6,41.7,17.2,55.1c1.5,8.2,4.5,21.3,6.4,29c2.1,7.7,4.7,25.4,5.8,39.2c3.6,42.6,6,62.2,8.8,72.7
		c1.5,5.6,3.2,20.4,3.7,32.7l1.1,22.6l-30.3,35.5c-34.2,40.2-44.8,51.4-47.6,51.2C5241.6,33421,5236.5,33419.3,5231.3,33417.5z"></path>
	<path id="XMLID_29_" class="st0 OLxnYKPV_17" d="M2530.9,33265.2c-28.2-6.4-42.6-25.6-46.1-61.8c-1.7-16.3,2.8-50.4,10.1-79.2
		c19.4-75.5,66.7-181.6,133-298.2c9.2-16.1,12.9-24.5,12.9-29.1c0-3.7-4.1-17-9.3-29.7c-17.7-44.5-21.7-77.2-10.8-91.4
		c14.2-18.7,39.8-94.9,60.3-179.9c52.3-216.4,114.7-620.5,166.3-1076.6c4.5-41.1,9-78.7,9.5-83.5l1.1-9l12.3-0.2
		c6.9-0.2,41.1-0.7,75.9-1.5l63.3-1.1l63.9,82.2c35.1,45.2,72.7,93.6,83.3,107.8c10.6,14,46.3,60.5,79.2,103.5
		c206.8,270,337.6,446.7,430.7,581.8c29.3,42.4,65.4,99.2,65.4,102.8c0,7.7-42,72.7-90.1,139.8c-61.3,85.4-197.3,264.4-199.7,262.9
		c-0.6-0.6-6.9-11.2-14-23.7c-37.7-68.2-95.3-158.4-132.7-208c-55.5-73.8-107.6-122.8-143.1-134.7l-9.2-3l-18.1,6.9
		c-139.6,53.6-244,172.6-302.9,345.5c-10.8,31.8-24.5,84.5-29.1,113.2c-3.4,20.7-5.2,25.4-47.6,128c-73.8,178.1-130,300.1-150.4,327
		c-3.9,4.9-6.7,6.5-15.5,8C2560.4,33267.6,2543.2,33268,2530.9,33265.2z"></path>
	<path id="XMLID_28_" class="st0 OLxnYKPV_18" d="M1728.8,33236.8c-11.6-9.7-17.6-32.9-21.5-80.9c-0.6-8.8-2.1-16.4-3.4-17.2
		c-1.5-1.1-1.3-2.1,0.6-3.2c1.9-1.3,2.8-6.9,3.2-21.1c0.7-23.4,3.7-58.9,6.2-71.6c0.9-5,3-16.1,4.7-24.3c1.7-8.2,4.1-22,5.6-30.8
		c1.3-8.8,4.3-23.4,6.7-32.7c13.5-55.7,17.6-71.6,23.2-92.5c6.5-24.3,22.2-73.4,26.3-83.1c1.3-3,5.4-14.8,9-26.2
		c9.5-29.5,19.1-56.6,24.3-68.4c2.4-5.6,5-12.3,5.8-15.3c0.6-2.8,3.2-9.5,5.8-14.9c2.4-5.2,6.5-15.1,9-21.9
		c2.6-6.7,6.7-16.8,9.2-22.4c2.6-5.6,6.2-14.4,8-19.6c1.9-5,5.4-13.8,7.8-19.2c2.2-5.4,6.5-14.9,9.2-21.5c2.6-6.4,6-12.9,7.3-14.4
		c1.3-1.5,3-4.7,3.7-7.1c1.5-4.9,10.8-25.4,14.8-32.1c1.5-2.6,6.2-12.1,10.5-21.5c10.6-22.8,31.6-60.9,48-87.8
		c1.3-2.1,5.6-9.3,9.9-16.3c4.1-7.1,8.4-12.7,9.3-12.7c1.1,0,1.9-0.9,1.9-2.1s2.6-5.8,5.6-10.5c3.2-4.5,5.6-8.6,5.6-9.2
		s5.2-7.7,11.8-16.1c6.4-8.2,12.5-16.6,13.8-18.7c1.1-2.2,2.8-4.3,3.7-5c2.1-1.5,11.4-12.5,18.3-21.7c8.8-11.6,39.4-43.3,57.7-59.8
		c37.7-34,50.3-44.8,58.7-50.6c5.2-3.5,12.1-1.7,27.8,7.8c5.6,3.4,13.5,7.3,17,8.4c3.7,1.1,10.5,4.7,14.9,7.5
		c4.7,3,11.4,6.4,15.1,7.5s11.4,5,17,8.4s13.8,7.5,18.1,9c4.1,1.5,11,4.9,15.1,7.7c4.1,2.6,11.6,6.5,16.8,8.4
		c5,2.1,13.3,6.2,18.3,9.2c4.9,3.2,11.8,6.7,15.5,7.8s11.4,5,17,8.4s13.6,7.5,17.7,8.8c4.1,1.5,11.6,5.2,16.6,8.4
		c5,3.4,12.1,6.9,15.9,8s11.4,5,17,8.4s13.6,7.5,17.7,8.8c4.1,1.5,10.8,4.9,14.8,7.7c3.9,2.6,12.1,6.5,18.1,8.8
		c9.7,3.6,20.2,11,15.3,11c-1.1,0-7.1,6.2-13.6,13.6c-6.4,7.3-21.5,23.5-33.4,36.1c-12,12.5-31.8,33.4-44.1,46.7
		c-12.3,13.3-32.1,34.2-44.1,46.5c-12,12.3-26.3,27.5-31.9,33.6c-5.6,6.2-16.8,17.9-25,26.2c-8,8.4-24.8,26-37.2,39.2
		c-17.2,18.7-54.9,58.7-62.6,66.3c-0.6,0.6-10.6,11.4-22.4,24.3c-11.8,12.9-22.8,24.7-24.3,26.3c-1.5,1.5-4.5,5-6.5,7.7
		s-11.8,13.5-21.7,24.1c-9.9,10.6-20.7,22.8-24.3,26.9c-3.4,4.1-16.1,18.5-27.8,31.8c-23.7,26.5-41.7,47.6-64.1,75.3
		c-8,10.1-16.8,20.7-19.2,23.7c-4.1,4.9-14.2,17.9-26.9,34.6c-44.7,58.1-67.1,96.6-84.3,143.9c-15.9,43.9-37.6,91.9-51.2,113.6
		c-29,46-43.7,63.3-62,73.8C1740.2,33243.2,1735.9,33242.6,1728.8,33236.8z"></path>
	<path id="XMLID_27_" class="st0 OLxnYKPV_19" d="M674,33156.1c-51.6-72.9-105.8-158.3-150.2-236.2l-21.1-37.2l5.8-11.8c3.4-6.5,6-12.3,6-12.9
		c0-1.3,26.2-60.9,30.5-69.3c9.7-19.2,23.7-49.3,23.7-51.2c0-1.1,0.9-2.1,1.9-2.1c1.1,0,1.9-0.9,1.9-1.9
		c0-6.2,78.7-157.1,98.5-189.3c2.4-3.9,6-9.9,7.8-13.1c11.6-20.2,41.5-68,50.4-80.5c12.5-17.4,19.8-27.7,27.3-38.7
		c3-4.5,6-8.6,6.5-9.2c0.6-0.6,8.6-9.7,17.7-20.6c9.3-10.8,21.5-24.1,27.1-29.5c12.5-12.3,35.9-26.7,45.2-28
		c18.1-2.4,30.8,13.3,35.9,43.9c1.5,9,4.5,26.3,6.7,38.5c3,16.8,3.4,23.7,2.1,29c-2.4,9-5.2,32.5-8.6,72.5
		c-1.5,17.6-4.1,36.8-5.8,43c-1.7,6-4.7,22-6.5,35.3c-1.9,13.5-5.4,34.4-8,46.7c-2.6,12.3-6.9,33.8-9.7,47.6
		c-2.6,13.8-6.9,31.6-9.3,39.2c-2.2,7.7-5.2,19.6-6.4,26.5c-1.1,6.9-2.6,14.6-3.5,16.8c-0.7,2.4-2.6,10.3-3.9,17.4
		c-1.3,7.3-3,14-3.7,14.9c-0.7,1.1-4.5,14.8-8.2,30.6c-3.9,15.9-7.7,30.3-8.6,32.1c-0.9,1.7-3.4,10.1-5.4,18.7
		c-1.9,8.6-4.9,20-6.4,25c-4.5,14.6-19.6,67.1-25.8,88.8c-3,10.8-6.9,23.7-9,29c-1.9,5-5.4,16.1-7.7,24.3c-2.2,8.2-6,20.4-8.4,27.1
		c-2.4,6.7-6.7,19.2-9.5,28s-6.2,17.9-7.5,20.6c-1.3,2.6-3.5,8.4-5.2,13.1c-7.5,22.2-14.6,35.9-24.5,46.7c-3.4,3.6-6.4,7.5-6.7,8.6
		C698.9,33190.1,687.5,33175.3,674,33156.1z"></path>
	<path id="XMLID_26_" class="st0 OLxnYKPV_20" d="M3821,33117.8c-8-3.6-16.4-7.7-18.7-9.3c-37-26-63-49-83.5-74c-5.4-6.7-10.8-12.9-12.1-14
		c-1.1-0.9-5.4-6-9.3-11.2c-3.9-5-8.6-10.6-10.1-12.3c-1.7-1.7-4.3-4.7-5.8-6.5c-1.7-2.1-7.8-9.7-14-17.4s-13.1-16.1-15.3-18.7
		c-2.2-2.6-4.1-5.4-4.3-6.2c0-0.7,2.4-5.2,5.6-10.1c3-4.9,6.5-11.8,7.7-15.5c1.3-3.5,4.9-10.8,8.2-16.1c3.2-5,7.3-13.3,9-17.9
		c1.9-4.7,5.4-11.4,7.8-14.8c2.6-3.6,6.4-11,8.6-16.6c2.1-5.8,5-11.8,6.4-13.3c1.5-1.7,5.8-9.7,9.5-17.8c3.7-8.2,8.8-17.8,11.2-21.5
		c2.4-3.6,5.6-9.9,7.1-14c1.3-4.1,5.6-12.3,9.3-18.5c3.6-6,7.7-13.8,8.8-17.6c1.1-3.5,4.5-10.1,7.5-14.4c3-4.5,6.7-11.6,8.2-15.7
		c1.3-4.1,6-13.1,10.1-20c4.3-6.9,7.7-14,7.7-15.7c0-1.5,3-7.5,6.5-13.1c3.6-5.6,8-14,9.7-18.7c1.7-4.7,5-11.2,7.3-14.8l4.3-6.4
		l2.6,6.4c1.3,3.6,3.7,9.7,5,13.8c1.3,4.1,3.2,8.4,4.1,9.7c3.9,4.9,22.4,59.8,27.8,82.6c2.1,8.8,4.5,16.8,5.6,18.1
		c1.1,1.3,4.9,17.4,8.2,35.7c3.6,18.3,7.7,39.6,9.2,47.3c4.1,21.5,10.5,65.4,10.5,73.4c0,3.7,0.9,6.9,2.1,6.9
		c1.5,0,1.7,3.2,0.7,10.3c-0.7,6.9-0.6,10.3,0.7,10.3s2.1,10.7,2.1,32.7c0,17.9-0.7,32.7-1.7,32.7c-0.7,0-2.1,9-2.8,20.2
		c-1.7,24.9-6.5,44.7-16.1,64.8C3854.5,33125.6,3846.2,33128.8,3821,33117.8z"></path>
	<path id="XMLID_25_" class="st0 OLxnYKPV_21" d="M4514.7,33069c-13.3-1.5-30.5-5-44.8-9.3c-12.9-3.9-28.8-8.4-35.5-10.3
		c-13.3-3.6-43.9-15.7-64.5-25.2c-7.1-3.4-16.8-7.8-21.5-10.1c-17.2-7.8-66.5-34.4-70.1-37.6c-2.1-1.7-8.4-5.8-14-9.2
		c-13.6-8-51.8-33.3-54.2-35.7c-0.6-0.6-5.6-4.3-11.2-8.4c-9.5-6.9-27.1-20.4-33.6-25.8c-1.5-1.3-6.5-5-11.2-8.2
		c-11-8-59.4-51.4-60-53.8c0-0.9-7.8-9-17.2-17.8s-21.3-20.9-26.3-27.1c-5-6.2-10.1-12-11.2-13.1c-6-5.4-20.9-24.3-52.9-67.4
		c-0.7-0.9-2.2-3.2-3.4-4.9c-0.9-1.7-7.5-11.2-14.2-21.5c-6.7-10.1-14-21.3-16.1-24.8c-17.9-29.5-23.2-39-31.8-56.8
		c-5.4-11-9.9-20.6-9.9-20.9c0-0.6-3.4-8.2-7.7-17.2c-10.5-22.2-24.8-61.8-28.8-78.8c-1.7-7.7-3.9-15.5-4.9-17.4
		c-2.8-5-7.3-25.8-7.3-33.6c0-8,5.8-15.3,14-17.4c6.2-1.5,42,6.7,57.9,13.3c6.4,2.6,14.9,5.4,26.7,8.4c4.3,1.1,7.7,2.6,7.1,3.4
		c-0.4,0.7,0.6,1.5,2.2,1.7c4.1,0.2,45.2,15.1,47.8,17.4c1.1,0.7,8.8,4.1,17,7.1c17,6.4,51.9,21.7,58.9,25.8
		c2.6,1.5,10.6,5.6,17.8,9.2c14.4,6.9,66.1,35.3,69.3,38.1c2.4,1.9,24.3,14.8,41.3,23.9c9.9,5.4,49.7,31.2,68.8,44.8
		c3.2,2.1,14,9.3,24.3,16.1c24.7,16.3,39,26.3,54.6,38.3c6.9,5.4,21.1,15.9,31.4,23c19.6,13.6,26,18.7,38.3,29.9
		c4.1,3.7,9.7,8.4,12.5,10.3c5.8,3.7,25.4,19.4,26.7,21.3c0.6,0.7,7.7,6.9,15.9,13.8c29.5,24.9,68,61.3,83,78.7
		c15.9,18.1,26.9,30.8,31.6,35.9c2.4,2.6,6.4,7.8,8.8,11.6c2.6,3.7,9.5,13.6,15.3,22c6,8.2,13.8,20.9,17.4,28
		c3.6,6.9,7.1,12.9,7.8,13.3c0.9,0.4,3.7,7.8,6.4,16.4c4.1,13.3,4.9,18.3,4.1,31.2c-1.5,28-13.5,42.8-51.4,63.5
		C4603.9,33070.9,4556,33073.7,4514.7,33069z"></path>
	<path id="XMLID_24_" class="st0 OLxnYKPV_22" d="M5514.3,33049.8c-9.9-4.9-21.3-11.6-34.2-20.4c-3.4-2.2-11-6.9-17.4-10.6
		c-6.4-3.6-12.5-7.8-13.8-9.5c-1.3-1.5-3.2-2.8-4.1-2.8c-3.4,0-58.5-36.8-70.4-47.1c-1.5-1.3-9.9-7.5-18.7-14
		c-25.6-18.7-43.7-32.9-60-47.3c-12.1-10.7-25.6-21.9-32.1-27.1c-28-21.9-121.3-115.7-148.5-149.5c-4.9-6-10.5-12.7-12.3-14.9
		c-1.9-2.1-4.5-5-5.6-6.5c-34.6-41.3-45-55.3-51.6-69.5c-4.9-10.8-4.9-11.8,0-19.6c4.1-6.5,12.1-11.6,25-15.3
		c4.1-1.3,9.2-3.2,11.2-4.1c3.9-1.9,33.6-5,62.2-6.7c10.1-0.6,23.5,0,31.6,1.3c11,1.7,14.4,1.7,15.5,0c0.9-1.5,4.5-1.9,10.5-1.3
		c44.5,4.3,54.2,5.4,56.8,6.9c2.8,1.5,28.8,5.6,53.2,8.6c6.2,0.7,15.9,2.8,21.5,4.9c5.6,2.1,15.7,4.9,22.4,6.4
		c11.8,2.6,16.4,4.1,36.4,12.9c5.2,2.2,11.4,4.9,14,5.6c2.6,0.7,12,5,20.9,9.5c8.8,4.5,16.8,8.2,17.9,8.2c0.9,0,3.7,1.7,6.2,3.6
		c5.8,4.5,16.3,10.8,22.2,13.5c2.6,1.1,6,3.2,7.7,4.7c1.9,1.7,7.5,5.6,12.5,8.8c5.2,3.4,16.1,11,24.1,17.2
		c8,6.2,17.6,13.1,21.1,15.7c3.5,2.4,9.5,7.1,13.1,10.5s11.6,10.7,17.6,15.9c6.2,5.4,12.9,11.8,14.9,14c2.2,2.2,16.6,15.3,31.9,29.1
		c15.5,13.6,31.8,28.4,36.2,32.7l8.2,7.7l-9.9,18.5c-34.4,64.1-85,151.5-115.1,198.2l-11,17.2L5514.3,33049.8z"></path>
	<path id="XMLID_23_" class="st0 OLxnYKPV_23" d="M1027.9,32934.7c-11.2-3-24.5-13.8-32.9-26.9c-10.5-16.6-24.5-49.1-28.6-66.9
		c-2.1-9.2-4.5-17.9-5.4-19.6c-2.6-5-7.1-29.3-8.4-46.5c-0.7-8.8-2.4-23.9-3.9-33.6c-3.4-22.4-3.4-37.7,0-58.9
		c1.5-9.2,3.7-26,4.9-37.4c1.3-11.2,3.5-23.9,5-28c6.2-16.8,28.6-92.3,28.6-96.2c0-1.5,1.1-4.9,2.4-7.5c1.3-2.6,3.9-9.7,5.8-15.9
		c6.5-22.2,11-35.7,13.3-41.1c1.5-3,5-12.1,8.2-20.2c7.5-19.2,32.3-67.1,40.9-78.8c28-38.7,60-69.9,85.8-84.1
		c3.7-2.1,8.6-5.2,10.6-6.9c2.1-1.9,4.3-3.4,5.2-3.4c1.3,0,23-9.5,29.5-12.9c2.6-1.5,24.8-8.2,43.9-13.5c4.1-1.1,11.4-3.4,16.3-4.9
		c7.8-2.4,37-6.2,48-6.2c2.4,0,5.8-1.1,7.3-2.2c2.2-1.9,3-1.9,3.6,0c0.9,2.6,6.2,3,6.2,0.4c0-0.9,3.7-1.9,8.4-1.9
		c4.7,0,8.4,0.7,8.4,1.7c0,1.9,16.1,0.6,21.5-1.7c3.6-1.5,29.7-6,50.4-8.4c14.8-1.7,40.9-7.1,42-8.4c0.6-0.7,12.7-4.1,27.1-7.5
		s28.2-7.3,30.8-8.4c2.6-1.3,15.1-5.4,28-9.3c12.9-3.7,24.3-7.7,25.2-8.4c1.1-0.9,12.5-4.7,25.4-8.2c12.7-3.5,26.2-7.8,29.7-9.3
		c3.5-1.3,17.2-3.9,30.1-5.6c23.5-3,41.3-2.2,57,2.4c9,2.8,41.3,18.7,43.7,21.7c1.3,1.5,3,2.8,3.7,2.8c3,0,46.7,28,46.7,30.1
		c0,0.7,3.5,3.4,8,6c10.3,6.2,32.1,27.5,42.2,41.1c20.9,28.6,25,50.8,13.8,74.2c-8,16.8-31.9,40-51.4,49.7
		c-88.6,44.7-102.2,52.9-119.6,70.6c-6,6.2-20.2,34-20.2,39.8c0,6.4-6.9,27.5-14,42.6c-3.7,8.2-7.7,16.6-8.4,18.9
		c-1.5,3.7-15.3,24.8-29,44.3c-6,8.4-15.7,20.6-32.1,40.5c-7.5,8.8-52.5,54.2-69.7,70.1c-12.1,11.2-64.6,53.3-74.4,59.8
		c-3.9,2.4-12.7,8.6-20,13.8c-29.5,21.1-42,29.3-54.6,36.1c-4.5,2.2-8,4.7-8,5.4s-6.2,4.7-13.5,8.8c-7.5,4.1-20.7,11.4-29.5,16.3
		c-21.5,12.1-62,32.7-64.6,32.7c-1.1,0-4.1,1.5-6.5,3.4c-2.4,1.9-9.5,5.2-15.7,7.7s-16.3,6.7-22.4,9.7c-6.2,2.8-18.7,7.3-27.7,9.9
		c-9.2,2.6-19.2,6-22.4,7.5c-5.8,2.6-31.6,9-62,15.1C1044.4,32938.6,1042.9,32938.6,1027.9,32934.7z"></path>
	<path id="XMLID_22_" class="st0 OLxnYKPV_24" d="M5731.1,32654.8c0-2.6-1.7-3.4-8-3.4c-15.9,0-94-9.5-108.7-13.3c-22.4-5.8-38.3-11.2-38.3-13.1
		c0-0.9-1.3-1.7-2.8-1.7c-4.3,0-23-10.6-31.9-18.3c-14-11.6-22.6-37.6-17.8-53.6c8.4-27.8,19.4-46.5,38.3-65.6
		c20.2-20.2,45.8-32.7,81.5-39.8c33.1-6.5,53.3-7.7,89.5-4.7c17.9,1.5,33.1,3.2,33.8,3.6c0.7,0.6,7.7,1.7,15.1,2.8
		c11.4,1.5,36.6,7.1,38.7,8.4c0.9,0.7-33.3,90.4-49.1,128.9c-27.7,66.5-27.8,67.3-32.9,68c-2.4,0.2-5,1.5-5.8,2.8
		C5731.6,32657.2,5731.1,32656.8,5731.1,32654.8z"></path>
	<path id="XMLID_21_" class="st0 OLxnYKPV_25" d="M4695.6,32589.8c-0.2-0.9-9-2.6-19.2-3.7s-23.7-3.4-29.9-4.9c-6.2-1.3-16.3-3.4-22.4-4.3
		c-17-2.6-60.9-14.2-69.1-18.3c-4.1-2.1-10.8-4.9-14.9-6.2c-4.1-1.3-9.9-3.7-13.1-5.6c-3-1.7-18.1-9.7-33.6-17.8
		c-26-13.5-47.1-26.7-56.1-34.9c-2.1-1.9-12.1-9.7-22.4-17.6c-10.3-7.8-24.5-19.8-31.4-26.7c-12.1-11.6-27.5-30.3-27.5-33.1
		c0-0.7-1.7-3.2-3.6-5.2c-6-6.4-22.2-38.7-25.6-51.2c-4.3-15.3-1.7-26.7,10.6-47.3c10.6-17.9,34.6-42,48-48.8
		c12.3-6,29.9-6,41.5,0.2c4.7,2.4,8.8,4.9,9.3,5.6c0.6,0.6,4.7,3.5,9.3,6.7c8.6,5.6,19.8,14.2,32.1,24.3c3.7,3,9.2,7.3,12,9.3
		s11.8,9.7,20.2,16.8c8.2,7.3,21.5,17.2,29.1,22.2c7.7,5,16.3,10.7,18.9,12.5c12.9,8.6,44.5,23,67.1,30.5
		c13.8,4.5,44.7,13.1,68.2,18.7c23.7,5.6,51.8,12.5,62.6,15.3c10.8,2.6,28.6,6.7,39.8,9.2c11,2.2,26.9,6.4,35.5,9
		c8.4,2.4,20.7,6.2,27.5,7.8c15.7,4.3,44.8,18.7,58.5,28.6c25.6,18.9,23.5,39-5.6,59.6c-25.4,17.8-59.2,31.4-91.2,37
		c-8.2,1.5-18.3,3.6-22.4,4.5c-4.1,1.1-16.6,2.8-28,3.9c-11.2,1.1-20.7,2.8-21.1,3.7c-0.9,2.4-13.5,2.4-13.5,0
		c0-0.9-3.7-1.9-8.4-1.9c-4.7,0-8.4,0.9-8.4,1.9C4718.4,32592.2,4696.5,32592.2,4695.6,32589.8z"></path>
	<path id="XMLID_20_" class="st0 OLxnYKPV_26" d="M321.1,32484.4c-14.9-40.4-50.1-145-49.1-146.1c0.4-0.2,5.4,0.9,11.4,2.6
		c6.5,1.7,11.4,2.2,12.1,1.1c1.7-2.2,39.6-1.1,39.6,1.3c0,0.9,2.6,1.7,5.6,1.7c3.2,0,5.6-0.9,5.6-1.9c0-1.3,3.7-1.7,10.8-0.9
		c6.5,0.7,21.5-0.4,39.6-2.8c15.9-2.2,31.2-3.9,34.2-3.7c2.8,0,5-0.7,5-1.9c0-2.6,14.4-2.4,15.3,0.2c0.6,1.5,4.9,1.5,15.3,0
		c19.2-2.8,30.6-2.6,49.3,0.7c17.2,3,22.2,5,26.9,11c4.7,5.6,4.1,11.2-2.4,25.2c-9.9,20.9-39.2,56.4-60.3,72.7
		c-17.9,13.8-21.3,16.3-43.2,30.6c-24.8,16.4-28,18.3-45.8,26.9c-7.7,3.6-15.7,7.7-17.7,8.6c-2.1,1.1-11.4,4.7-20.7,8l-17,5.8
		L321.1,32484.4z"></path>
	<path id="XMLID_19_" class="st0 OLxnYKPV_27" d="M5045.4,32453.9c-2.6-0.4-11.4-2.8-19.6-5.2c-8.2-2.6-23.4-6.7-33.6-9.5
		c-10.3-2.6-21.3-6-24.5-7.5c-3.2-1.3-13.3-5-22.4-8.2c-9.2-3.2-20-7.3-24.1-9.2c-4.1-2.1-14.6-6.4-23.2-9.5
		c-8.6-3.2-17.6-7.1-19.6-8.4c-2.2-1.3-7.3-3.4-11.4-4.7c-4.1-1.3-8.2-3-9.3-3.7c-0.9-0.7-3.9-2.1-6.5-2.8
		c-2.6-0.7-9.2-3.4-14.6-5.8c-5.4-2.4-10.6-4.5-11.4-4.5c-1.7,0-22.4-9-56.2-24.3c-8.8-3.9-24.7-11-35.5-15.9
		c-51.4-23.2-155.6-74.9-158.8-79c-0.6-0.7-7.8-4.7-16.3-8.8c-8.6-3.9-15.5-8-15.5-8.8c0-0.7-0.9-1.5-2.1-1.5
		c-1.9,0-19.6-9.5-31.6-16.8c-6.4-3.9-31.2-17.8-40.9-22.8c-5.8-3-12.1-7.1-14.4-9.2c-2.1-1.9-4.3-3.5-5-3.5
		c-1.3,0-24.5-14.2-44.3-27.1c-43-28-54-35.5-70.1-47.8c-4.1-3-13.3-9.9-20.6-15.3c-7.1-5.4-20.4-15.5-29.1-22.6l-16.1-12.7l9.7-9.2
		c5.2-5,12-13.5,14.9-18.9s7.7-12.7,10.6-16.1c2.8-3.4,7.3-10.1,9.7-14.9c2.6-5,7.7-12.7,11.4-17.2s8.6-11.6,10.6-15.7
		c2.2-4.3,6.5-11,9.9-15.1c3.4-4.1,8-11.2,10.3-15.9c2.4-4.7,7.1-11.6,10.5-15.3c3.4-3.7,8-10.5,10.3-14.9s6.7-11.4,10.1-15.5
		c3.4-4.1,7.8-10.8,9.9-15.1c2.1-4.1,6.9-11.2,10.6-15.7s8.4-11.2,10.5-15.1c1.9-3.9,7.5-12.3,12.5-19.1c5-6.5,10.3-15.7,11.6-20.2
		l2.4-8.4l19.8,2.4c10.8,1.3,21.7,3.2,23.9,4.3c7.5,3.2,36.8,6.4,37.6,3.9c0.9-2.6,7.3-2.8,8.8-0.2c0.6,0.9,3.7,1.9,7.1,1.7
		c3.4,0,11.4,0.9,18.1,2.1c22.6,3.9,67.3,8.6,67.3,7.1c0-2.1,23-1.7,34.6,0.4c13.8,2.6,83,11.2,87.6,10.8c6.2-0.4,44.8,4.7,46.9,6.2
		c2.2,1.5,20.9,4.5,43.9,7.3c8.8,0.9,24.7,3.9,35.5,6.5c10.8,2.4,31,6.7,44.8,9.5c13.8,2.6,26.5,5,28,5.4c34.2,8,48.4,11,60.5,13.3
		c8.2,1.5,17.4,3.9,20.6,5.4c3.2,1.3,10.8,3.5,17,4.7c14,2.6,46.1,11.4,48.6,13.1c1.1,0.7,4.9,2.1,8.4,2.8
		c11.2,2.2,38.1,10.6,42,13.1c2.1,1.3,6.7,3,10.3,3.7c7.8,1.7,33.8,10.3,36.4,12.1c1.1,0.7,6.5,2.8,12.1,4.7
		c10.1,3.4,45,19.1,54.2,24.5c2.6,1.5,10.1,5.2,16.8,8.4c6.7,3,15.1,7.5,18.7,9.9c46.7,30.6,52.5,34.8,68.8,51.2
		c16.3,16.4,23.2,24.7,40,47.8c15.1,20.9,38.7,57,43.3,66.5c0.7,1.5,2.2,4.5,3.6,6.5c9.9,16.3,17.9,30.6,19.1,34.6
		c0.7,2.6,5.4,13.1,10.5,23.4c5,10.3,9.2,20.2,9.2,21.9s0.7,3.5,1.7,4.3c4.9,3,18.5,56.8,20.2,79.8c1.1,13.8-5,34.8-12.9,43.7
		c-10.8,12.3-23,16.8-54.2,20.6c-6,0.6-10.8,1.9-10.8,2.8c0,0.9-4.1,1.7-9.3,1.7c-5,0-9.3-0.7-9.3-1.7c0-0.7-10.6-2.1-23.7-2.8
		c-13.3-0.7-33.6-3-45.4-5c-18.9-3.4-29-3.9-81.8-3.6c-33.1,0-61.5,0.6-63,1.1c-1.5,0.7-2.8,0.2-2.8-1.1c0-4.5-25.4,3.6-34.2,10.7
		c-3,2.4-6,4.3-6.7,4.3c-2.1,0-18.5,16.1-28.4,28c-9,10.5-19.8,21.9-24.3,25.2c-7.8,5.8-18.3,11.8-23.9,13.6
		C5073,32455.2,5055.3,32455.6,5045.4,32453.9z"></path>
	<path id="XMLID_18_" class="st0 OLxnYKPV_28" d="M5732.9,32285.2c-1.5-0.9-8.8-3.7-16.1-6.5c-7.5-2.6-17.6-7.7-22.4-11.2
		c-5-3.5-10.1-6.5-11.2-6.5c-1.1,0-3.5-1.9-5.6-3.9c-1.9-2.2-7.3-6.5-12-9.7c-4.7-3.2-8.8-6.2-9.3-6.7c-0.6-0.7-5-4.1-10.1-7.7
		c-20.4-14.8-36.1-33.3-47.5-56.1c-6.4-12.9-6.9-15.3-6.9-29.9c0-14,0.7-17.4,6-28.6c11-23.4,45.6-52.5,87.4-73.8
		c30.8-15.5,49.9-23.7,64.8-27.5c6.2-1.7,13.1-4.1,15.3-5.6c2.1-1.3,8.2-3,13.3-3.7c5.2-0.6,18.1-3,29-5c21.3-4.3,27.8-3.9,54.2,3.7
		c13.8,3.9,44.8,18.5,44.8,21.1c0,0.9,2.4,3.2,5.4,5c3,1.7,8.6,7.5,12.7,12.5l7.5,9.3l-6,28c-3.4,15.5-8.8,40.4-12.3,55.5l-6.2,27.7
		l-6.7,1.1c-15.5,3-62.4,25.6-78.1,37.9c-12,9.3-29.5,27.5-38.7,40.2c-18.5,25.2-24.5,31.8-33.6,36.8
		C5740.8,32287.1,5737.4,32287.8,5732.9,32285.2z"></path>
	<path id="XMLID_17_" class="st0 OLxnYKPV_29" d="M749.5,32139.5c-0.6-2.1-52.1-8-71-8.2c-7.1-0.2-12.7-0.7-12.7-1.3s-8.8-1.7-19.6-2.2
		c-10.6-0.6-20.9-1.9-23-3c-1.9-0.9-18.3-3.9-36.4-6.7c-18.3-2.6-39.6-6.9-47.6-9.2c-7.8-2.4-19.2-4.9-25.2-5.6
		c-6-0.7-18.7-3.4-28-5.8c-37.6-9.9-71.9-19.4-81.6-23c-5.6-2.1-18.3-6.2-28-9.3c-28-9.2-51-17.2-53.1-18.9c-1.1-0.7-8.8-4.3-17-7.7
		c-8.2-3.6-17-7.7-19.6-9.2c-2.6-1.7-9.7-5.4-15.7-8.6c-6.2-3.2-16.6-11-23.5-17.9c-10.1-9.9-12.9-14.2-14.8-21.5
		c-1.3-5-3-12.1-4.1-15.9c-4.1-16.3,1.9-78.1,8.6-88.8c1.5-2.2,3.9-9.3,5.6-15.9c5.8-22,29.5-64.8,47.6-85.6
		c9-10.3,33.4-24.5,42.2-24.5c6.2,0,65,29,73.6,36.2c1.5,1.3,4.1,3,5.8,3.6c3.4,1.1,38.9,25,46.5,31c2.6,2.1,5.2,3.9,6,3.9
		s5,2.6,9.3,5.6c17.9,12.5,49.5,33.4,56.6,37c16.8,9,36.4,17.8,51.4,23.2c8.8,3.2,17.6,6.9,19.6,8.2s12,4.9,22.2,8
		c10.1,3.4,20.7,7.1,23.5,8.6s9.3,3.6,14.2,4.7c12,2.4,38.1,9.3,42.8,11.2c4.9,2.1,25.6,6.7,46.1,10.3c8.8,1.7,18.9,3.9,22.4,4.9
		c11.2,3.6,84.5,10.7,86.1,8.4c0.9-1.5,1.7-1.5,2.8-0.2c1.9,2.8,27.3,6.9,28,4.7c0.9-2.6,78.3-2.4,79.2,0c0.4,1.3,3.5,1.5,9.9,0.2
		c5.2-0.9,27.8-3.5,50.4-5.8c22.6-2.2,48.2-5.8,57-7.8s24.5-4.1,35.1-4.7c10.5-0.6,19.1-1.9,19.1-2.6c0-0.9,6-1.7,13.1-1.7
		c7.5,0,13.1,0.7,13.1,1.9c0,2.6,5,2.2,6.2-0.4c0.6-1.9,1.7-1.9,4.5-0.4c1.9,1.1,9.7,2.8,17.4,3.6c7.8,0.7,21.7,4.1,31.8,7.8
		c30.1,10.6,31.6,18.7,6.5,36.1c-5,3.6-11,7.8-13.1,9.5c-7.1,6-58.7,32.7-79.4,41.1c-7.7,3.2-16.1,6.9-18.7,8.4
		c-2.6,1.3-13.8,6-25.2,10.3c-11.2,4.3-29.3,11-40.2,15.1c-10.8,4.1-28,10.3-38.3,13.8c-10.3,3.5-20.4,7.1-22.4,8.2
		c-2.1,0.9-11.2,3.9-20.6,6.5c-9.2,2.6-20.6,6.2-25.2,7.8s-20.2,6.2-34.6,9.9c-14.4,3.7-27.5,7.3-29,8c-1.5,0.6-12,2.1-23.4,3.2
		c-42.8,4.3-82.2,9.5-82.8,11.4C779.2,32141.9,750.5,32141.9,749.5,32139.5z"></path>
	<path id="XMLID_16_" class="st0 OLxnYKPV_30" d="M5527.4,31995.6c-2.6-0.7-8.8-1.5-13.8-1.7c-15.3-0.4-39.8-7.5-62-18.3
		c-11.8-5.8-44.1-24.5-45.6-26.5c-1.3-1.7-34-20.9-51-29.7c-24.1-12.9-77.2-35.5-104.1-44.5c-7.7-2.6-16.4-6-19.6-7.3
		c-3-1.3-12.1-4.7-20-7.3c-7.8-2.4-16.8-6-20-7.7c-3.2-1.5-12.3-5.2-20.2-8.2c-17.7-6.5-50.1-22-63.9-30.6
		c-11.6-7.3-20.6-17.2-20.7-23c0-3.7,7.3-12.7,17.8-21.1c10.1-8.4,44.7-20.7,71.9-25.6c13.8-2.4,32.9-6.2,42-8.2
		c10.3-2.4,23.7-3.9,34.6-4.1c9.7,0,18.7-0.7,19.6-1.7c1.1-0.7,11.2-1.3,22.4-1.1c21.9,0.4,88.7-6,88.7-8.4c0-0.7,3.4-1.5,7.5-1.5
		c4.1,0,7.5,0.6,7.5,1.5c0,1.7,17.2,0.4,19.6-1.5c1.1-0.9,17.4-1.5,36.4-1.5c24.3,0.2,34.6-0.4,35.1-1.9c0.7-2.6,71.4-3.2,71.4-0.6
		c0,0.9,11.2,2.2,24.9,2.8c37.7,2.1,112.1,15.5,120,21.7c1.1,0.9,6.2,3.2,11.4,5.2c37.4,14.2,91.6,68.9,109.5,110.6
		c6.2,14.8,6.4,17.6,1.3,29c-4.7,10.7-29,35.7-40,41.1c-4.1,2.1-8.8,4.7-10.3,6c-3.2,2.4-38.9,17.8-51.4,22
		c-21.9,7.5-57.5,17.7-67.8,19.6c-6.4,1.1-16.6,3.6-22.6,5.6c-10.3,3.2-57.5,11.4-86.1,14.9c-6.7,0.7-13.5,1.9-14.9,2.4
		C5533.4,31996.7,5530,31996.4,5527.4,31995.6z"></path>
	<path id="XMLID_15_" class="st0 OLxnYKPV_31" d="M1020.5,31811.6c-0.4-0.6-12.5-2.6-26.9-4.7c-14.2-2.1-31-4.7-37.2-5.6
		c-7.8-1.5-11.4-1.5-11.8-0.2c-0.7,2.4-7.8,2.8-7.8,0.4c0-0.9-7.3-2.2-16.3-3c-9.2-0.6-22.2-2.4-29.5-3.9c-7.1-1.5-18.9-3.6-26-4.5
		c-14.4-2.2-66-13.5-81.5-17.9c-5.6-1.5-19.4-4.9-30.8-7.5c-11.2-2.4-24.7-6.2-29.9-8c-5-2.1-18.1-6.5-29-10.1
		c-34.9-11.6-58.7-20.4-63.5-23.7c-2.6-1.9-10.5-5.8-17.7-9c-11.8-5.2-29.1-14.4-56.1-29.3c-5-2.8-11-6.2-13.1-7.3
		c-3.9-2.2-26.3-17.2-39.4-26.5c-4.3-3-16.6-12.3-27.7-20.9c-19.1-14.9-20-15.5-25.8-13.6c-29.5,9.3-106.3,11.6-146.3,4.5
		c-51.6-9.3-92.5-25-137.1-52.9c-16.3-10.1-21.7-12.7-23-10.8c-2.4,3.4-0.6-213.9,2.1-252.6c1.3-17,3.9-51.4,6-76.6
		c40.4-491.4,204.6-962.8,478.3-1373.3c47.5-71.2,40.9-63.9,63.7-71c10.6-3.2,23.5-7.5,28.6-9.5c5.2-1.9,18.7-5.6,29.9-8
		c11.4-2.6,25.2-6,30.8-7.5c15.5-4.5,67.1-15.7,81.5-17.9c7.1-0.9,18.9-3,26-4.5c7.3-1.5,26.3-3.7,42.6-4.7
		c16.3-1.1,30.5-2.6,31.4-3.2c1.1-0.6,13.5-2.6,27.5-4.7c22.2-3,38.3-3.4,119.6-3.6c94.4,0,110.2,0.7,143.3,7.7
		c5.2,0.9,24.3,2.6,42.6,3.7c18.3,0.9,39.8,3,47.6,4.7c7.8,1.5,21.5,3.6,30.3,4.5s24.3,3.4,34.8,5.6c10.3,2.1,28.8,4.9,41.1,6.5
		c12.1,1.5,27.7,3.9,34.4,5.6c6.7,1.7,20.9,4.7,31.8,6.7c10.8,2.1,26.3,5.4,34.6,7.5c15.9,4.1,40.2,9.5,61.3,13.8
		c7.1,1.5,17.9,4.3,24.3,6.2c6.4,2.1,21.7,6.2,34,9.3c12.3,3.2,31.8,8.2,43,11.4c11.4,3.2,24.3,6.7,29,7.8c4.5,0.9,9.2,2.6,10.3,3.5
		c1.1,0.9,7.7,3,14.6,4.7c6.9,1.5,21.9,6.2,33.4,10.1c11.6,3.9,27.8,9.5,36.1,12.3c35.1,12,82.6,29.7,95.3,35.5
		c3.2,1.5,12.9,5.2,21.5,8.4c16.8,6.2,28.8,11.6,79.4,36.8c51,25.2,64.1,32.3,119.2,65.8c20.2,12.3,29.3,18.5,53.6,36.6
		c3.6,2.6,12.9,9.5,20.6,15.3c7.7,5.6,19.4,15.1,26.2,20.9c6.7,6,17.6,15.3,24.3,20.9c6.7,5.4,21.9,19.8,33.6,31.8
		c24.5,24.8,27.5,28,40.2,44.5c5.2,6.5,13.8,17.4,19.4,24.3c5.4,6.7,14.4,19.1,19.6,27.3c13.6,20.7,26,40,30.5,47.6
		c9.2,15.3,43.5,86.1,43.5,89.7c0,0.9,2.2,6.5,4.9,12.5c9.2,20.6,27.5,83,29.9,101.5c0.7,5.6,2.8,14,4.7,18.3
		c2.1,4.5,4.9,18.3,6.5,30.8c1.5,12.5,4.1,28.8,5.6,35.9c1.5,7.3,3.4,18.1,4.3,24.3c1.7,11,6.7,84.1,6.2,91.6
		c0,2.1-0.7,10.1-1.5,17.9c-0.9,11.8-0.6,16.6,3,28.4c3.9,13.5,4.1,16.1,3,60.5c-0.6,25.4-1.9,55.7-2.8,66.9
		c-0.9,11.4-2.6,36.6-3.7,56.1c-2.2,36.8-3.9,50.8-8.4,72.9c-1.5,7.3-4.1,23.4-5.6,35.9c-1.7,12.5-4.5,26.3-6.5,30.8
		c-1.9,4.3-3.9,12.7-4.7,18.3c-2.4,18.5-20.7,80.9-29.9,101.5c-2.6,6-4.9,11.6-4.9,12.5c0,3.5-34.4,74.4-43.5,89.7
		c-4.5,7.7-16.8,26.9-30.5,47.6c-5.2,8.2-14.2,20.6-19.6,27.3c-5.6,6.9-14.2,17.8-19.4,24.3c-12.7,16.4-15.7,19.6-40.2,44.5
		c-11.8,12-26.9,26.3-33.6,31.8c-6.7,5.6-17.6,14.9-24.3,20.9c-6.7,5.8-18.5,15.3-26.2,20.9c-7.7,5.8-17,12.7-20.6,15.3
		c-24.3,18.1-33.4,24.3-53.6,36.6c-55.1,33.4-68.2,40.5-119.2,65.8c-50.6,25.2-62.6,30.6-79.4,36.8c-8.6,3.2-18.3,6.9-21.5,8.4
		c-12.7,5.8-60.2,23.5-95.3,35.5c-8.2,2.8-24.5,8.4-36.1,12.3c-11.6,3.9-26.5,8.6-33.4,10.1c-6.9,1.7-13.5,3.7-14.6,4.7
		c-1.1,0.9-5.8,2.6-10.3,3.5c-4.7,1.1-17.6,4.7-29,7.8c-11.2,3.2-30.6,8.2-43,11.4c-12.3,3.2-27.7,7.3-34,9.3
		c-6.4,1.9-17.2,4.7-24.3,6.2c-21.1,4.3-45.4,9.7-61.3,13.8c-8.2,2.1-23.7,5.4-34.6,7.5c-10.8,2.1-25,5-31.8,6.7
		c-6.7,1.7-22.2,4.1-34.4,5.6c-12.3,1.7-30.8,4.5-41.1,6.5c-10.5,2.2-26,4.7-34.8,5.6s-22.2,3-29.9,4.5c-7.7,1.3-21.3,3.2-30.3,3.9
		c-9.2,0.7-16.4,2.1-16.4,3c0,0.9-3.7,1.7-8.4,1.7s-8.4-0.9-8.4-2.1c0-1.9-9.2-1.3-26.2,2.1c-4.7,0.9-16.4,2.6-26.2,3.9
		c-9.7,1.1-18.5,3-19.6,3.7C1208.8,31812.5,1022.1,31813.3,1020.5,31811.6z"></path>
	<path id="XMLID_14_" class="st1 OLxnYKPV_32" d="M5023.9,31678.7c-0.9-0.4-9.9-1.7-19.6-2.6c-9.7-1.1-21.7-2.4-26.5-3c-6-0.7-9-0.4-9,0.9
		c0,2.8-16.3,2.6-17.2-0.2c-1.1-3-44.8-5.8-46.7-3c-0.7,1.5-5.6,1.5-14.9,0.4c-7.5-0.7-19.2-1.5-26.2-1.7c-6.7,0-13.1-0.6-13.8-1.3
		c-0.7-0.9-5-1.5-9.3-1.5c-4.5,0-23.9-2.1-43.2-4.7s-45-5.6-57.5-6.5c-12.3-0.9-26.9-2.6-32.1-3.6c-5.4-1.1-19.2-2.8-30.8-3.9
		s-26.5-3.4-33.1-4.9c-6.7-1.5-27.7-4.9-46.7-7.3c-19.1-2.6-41.1-6.2-48.8-7.7c-7.7-1.7-23.7-4.5-35.5-6.4
		c-39.8-6.2-70.1-11.4-73.8-13.3c-2.1-0.9-13.8-3.4-26.2-5.4c-12.3-2.1-30.5-5.8-40.2-8.2c-9.7-2.6-24.1-5.4-31.8-6.5
		c-13.6-2.1-40.2-7.8-51.4-11.4c-3-0.9-16.4-3.9-29.9-6.5c-13.3-2.6-29-6.4-34.6-8.2c-5.6-2.1-18.7-5.4-29-7.7
		c-10.3-2.1-24.1-5.4-30.8-7.5c-14.4-4.1-33.4-8.8-50.8-12.1c-6.9-1.5-14.2-3.4-16.1-4.5c-2.1-1.1-12.5-4.1-23.5-6.7
		c-11-2.4-26-6.7-33.4-9.2c-7.5-2.4-23.2-6.7-34.9-9.5c-11.8-2.6-27.3-6.9-34.6-9.3c-7.1-2.4-18.1-5.6-24.3-7.1
		c-29.1-7.1-108.2-39-135.5-54.7c-2.6-1.5-10.6-5.6-17.8-9c-7.3-3.6-14.4-7.7-15.7-9.3s-3.4-3-4.5-3c-0.9,0-6.4-3.2-12-6.9
		c-5.6-3.9-14.2-9.5-19.2-12.7c-17.9-11.4-49.1-33.8-58.3-42c-5.2-4.7-11.4-9.5-13.8-10.8c-2.4-1.3-4.5-3.2-4.5-4.1
		c0-0.9-2.4-3-5.2-4.5c-6.7-3.4-52.1-48.4-65.4-64.6c-5.4-6.7-11.2-13.8-12.9-15.7c-1.7-2.1-5.8-7.5-9.3-12.1
		c-3.5-4.7-7.5-9.3-8.6-10.5c-3.9-3.4-40.2-57.2-47.3-70.1c-1.9-3.6-4.1-6.9-4.9-7.5c-1.7-1.3-38.1-74.7-39.8-80.3
		c-0.7-2.6-3.2-8-5.2-12.1c-6.5-12.7-18.1-47.3-26.7-79.4c-9.2-34.4-18.1-76-16.8-78.3c1.3-1.9-3.6-45.8-7.1-66.3
		c-8.2-46.3-8-92.1,0.6-143.5c2.1-11.6,4.1-27.5,4.9-35.1c1.3-14.2,8.4-55.9,12.1-71.2c1.1-4.5,4.1-18.3,6.9-30.6
		c5-24.3,18.9-67.4,25.6-81.1c2.4-4.7,5-10.6,5.8-13.3c1.7-5.6,38.1-79,39.8-80.3c0.7-0.6,3-3.9,4.9-7.5
		c7.1-12.9,43.3-66.7,47.3-70.1c1.1-0.9,5-5.8,8.6-10.5c3.6-4.7,7.7-10.1,9.3-12.1c1.7-1.9,7.5-9,12.9-15.7
		c13.3-16.3,58.7-61.3,65.4-64.6c2.8-1.5,5.2-3.6,5.2-4.5c0-0.9,2.1-2.8,4.5-4.1c2.4-1.3,8.6-6.2,13.8-10.8
		c9.2-8.2,40.4-30.6,58.3-42c5-3,13.6-8.8,19.2-12.5c5.6-3.9,11-7.1,12-7.1c1.1,0,3.2-1.3,4.5-3c1.3-1.7,8.4-5.8,15.7-9.3
		c7.1-3.4,15.1-7.5,17.8-9c27.3-15.7,106.3-47.6,135.5-54.7c6.2-1.5,17.2-4.7,24.3-7.1c7.3-2.4,22.8-6.7,34.6-9.3
		c11.8-2.8,27.5-7.1,34.9-9.5c7.5-2.4,22.4-6.7,33.4-9.2c11-2.6,21.5-5.6,23.5-6.7c1.9-1.1,9.2-3,16.1-4.5
		c17.4-3.4,36.4-8,50.8-12.1c6.7-2.1,20.6-5.4,30.8-7.5c10.3-2.2,23.4-5.6,29-7.7c5.6-1.9,21.3-5.6,34.6-8.2
		c13.5-2.6,26.9-5.6,29.9-6.5c11.2-3.5,37.7-9.3,51.4-11.4c7.7-1.1,22-3.9,31.8-6.5c9.7-2.4,27.8-6.2,40.2-8.2
		c12.3-2.1,24.1-4.5,26.2-5.4c3.7-1.9,34-7.1,73.8-13.3c11.8-1.9,27.8-4.7,35.5-6.4c7.7-1.5,29.7-5,48.8-7.7
		c19.1-2.4,40-5.8,46.7-7.3c6.5-1.5,21.5-3.7,33.1-4.9s25.4-2.8,30.8-3.9c5.2-0.9,19.8-2.6,32.1-3.6c12.5-0.9,38.5-3.9,57.9-6.5
		c24.9-3.4,51-5.4,86.9-6.7c55.5-2.1,89.7-4.1,122.9-7.5c15.7-1.5,28.4-1.5,49.5,0c74.2,5.4,106.5,7.5,124.6,7.5
		c20.6,0.2,53.1,3.7,79,8.6c8.4,1.5,25,3.9,36.8,5.4c24.1,3,60.9,9.5,67.8,12.1c2.4,0.9,18.3,4.5,35.1,7.7
		c16.8,3.4,32.9,7.3,35.7,8.6c2.8,1.5,11.6,4.3,19.6,6.2c27.3,6.7,33.3,8.8,92.9,30.6l10.8,4.1l20.6,34.6
		c226.3,379.7,363,807.2,399.3,1248.1c6.7,81.5,7.8,105.9,8.8,195.2l0.7,87.8l-6.5-17.8c-3.7-9.7-7.8-20.2-9.3-23.4
		c-4.7-9.7-21.5-51.2-21.5-53.3c0-2.4-8.8-2.4-10.3-0.2c-0.6,1.1-2.4,1.7-4.3,1.7c-1.7-0.2-11.2,1.9-20.9,4.7
		c-24.1,6.5-71.2,15.5-96.2,18.1c-11.2,1.3-21.9,3-23.5,3.7c-1.7,0.9-6.5,1.1-10.6,0.6c-6.7-0.9-8-0.6-9.9,3.4
		c-1.1,2.4-7.7,9-14.6,14.4c-12.9,10.3-36.4,29-41.3,32.7c-1.7,1.3-6.7,4.7-11.2,7.8c-4.7,3-11.4,7.8-14.9,10.5
		c-3.6,2.8-10.6,7.3-15.9,10.1c-5,2.8-10.3,5.8-11.4,6.7c-5.6,4.7-67.8,37-89.1,46.5c-5,2.2-10.6,4.1-12.5,4.3
		c-1.9,0.2-3.2,0.7-2.6,1.5c0.7,1.1-6.5,4.1-48.8,19.6c-24.3,8.8-34.9,12.1-57.5,17.8c-8,1.9-16.8,4.7-19.6,6.2
		c-2.8,1.3-18.9,5.2-35.7,8.6c-16.8,3.2-32.7,6.7-35.1,7.7c-6.9,2.6-43.7,9.2-67.6,12.1c-11.8,1.3-30.6,4.3-42,6.2
		c-11.4,2.1-26.5,4.3-33.8,5c-7.1,0.6-13.8,1.7-14.9,2.2c-0.9,0.6-6,1.1-11.2,1.3c-5,0.2-14.6,0.9-20.9,1.9
		c-8.2,0.9-11.8,0.9-11.8-0.6c0-3.2-32.3-0.6-34.2,2.6c-1.9,3.4-25.6,3.7-25.6,0.6c0-1.5-3-1.7-9.7-0.9c-5.4,0.7-14.9,1.7-21.1,2.4
		c-6.2,0.6-11.8,2.1-12.5,3.2c-1.1,1.5-1.5,1.3-1.5-0.2c0-2.2-10.3-2.1-28,0.2C5027.8,31679.1,5025,31679.1,5023.9,31678.7z"></path>
	<path id="XMLID_13_" class="st0 OLxnYKPV_33" d="M3345.1,30111c0.2-15.1,19.4-101.6,26.3-118.3c1.1-2.6,4.1-11.8,6.7-20.6
		c2.4-8.6,6.9-20.7,9.7-27.1c2.8-6.2,5.8-13.6,6.5-16.8c0.7-3,3.9-11.4,7.1-18.7c3.2-7.1,7.3-16.6,9.2-20.9c2.1-4.5,3.6-8.4,3.6-8.8
		c0-1.1,33.4-70.8,35.5-74c0.9-1.5,5.4-9.9,10.1-18.7c10.1-19.4,15.9-30.5,21.7-40.2c2.4-4.1,6.4-11.2,8.8-15.7c2.2-4.5,5-9,6-10.3
		c0.9-1.1,4.5-7.1,7.7-13.3c3.4-6.2,8-13.8,10.5-17.2c2.4-3.2,4.5-6.4,4.5-7.1c0-1.1,14.2-23.5,26-40.9c2.6-3.9,5.8-8.6,6.7-10.3
		c10.3-16.3,37.2-55.3,40.2-58.1c0.6-0.6,4.3-6,8.4-12.1c4.1-6.2,11-15.9,15.5-21.5s9.9-12.3,11.8-14.9c27.5-35.5,37.6-48.2,64.1-80
		c45.6-54.9,118.3-124.3,171.3-162.9c5.6-3.9,14.9-11,20.9-15.3c11.4-8.2,19.2-13.3,42.8-27.5c7.5-4.7,15.3-9.7,17.4-11.2
		c3.7-3,5.4-4.1,19.4-11.8c3.7-2.1,8-4.9,9.5-6.2c1.5-1.3,7.5-4.9,13.1-7.8c17.8-9.7,38.1-21.5,43-24.8c8.2-5.6,36.1-19.8,45.8-23.4
		c5.2-1.9,10.3-4.1,11.4-5c1.1-0.7,11.4-4.9,22.8-9c11.4-4.1,22.2-8.2,24.1-9.2c1.9-0.9,13.3-3.7,25.4-6l21.9-4.1l12,3.9
		c18.9,6.2,35.1,18.5,41.1,31.2c1.7,3.5,3.9,6.9,5,7.7c1.1,0.6,4.1,5.8,6.9,11.6c5.8,12.3,6.7,30.5,2.2,41.5
		c-12.1,28.6-29.7,54.7-67.8,101.6c-5.4,6.5-62.2,69.9-64.8,72.1c-0.6,0.6-5.2,6-10.3,12.1c-5.2,6.2-10.3,12.1-11.4,13.1
		c-0.9,1.1-4.3,5.2-7.5,9.2c-22.8,30.1-25.6,36.4-46.5,102c-7.7,24.5-19.1,50.4-44.1,101.8c-6.5,13.5-12.3,24.7-12.9,25.2
		s-3.4,6-6.4,12.1s-6.4,12.1-7.5,13.1c-1.1,1.1-5,7.8-8.8,14.9c-10.3,19.8-22.2,40.7-26,44.8c-1.9,2.1-6,8.6-9.2,14.4
		c-3.4,5.8-7.3,11.6-9,12.9c-1.5,1.3-3.5,4.1-4.3,6.4c-0.9,2.1-7.8,12.5-15.7,23.4c-19.8,27.7-20.2,28.2-25.2,33.4
		c-2.4,2.6-7.5,9.2-11.4,14.2c-16.3,21.5-63.9,65-93.4,85.2c-6.7,4.5-12.5,8.6-13.1,9.2s-4.7,3.6-9.3,6.5c-4.7,3.2-13.1,9-18.7,13.3
		c-10.8,8-67.6,46.2-91.6,61.5c-7.7,4.9-16.1,10.5-18.7,12.3c-2.6,1.9-9.3,6-14.9,9.3c-5.6,3.2-12,7.3-14,9
		c-3.4,3-9.7,6.9-39.2,24.5c-4.3,2.6-13.6,7.8-20.7,12c-7.1,3.9-15.9,9.2-19.6,11.6c-3.5,2.4-7.3,4.5-8.2,4.5c-0.9,0-3,1.1-4.5,2.4
		c-5.4,4.7-71.4,10.6-117.3,10.6h-30.5V30111z"></path>
	<path id="XMLID_12_" class="st0 OLxnYKPV_34" d="M3148.4,29998.9c-2.6-3-7.5-11-10.6-18.3c-3.2-7.1-6.7-14.6-7.7-16.4
		c-1.1-1.9-3.5-11.6-5.6-21.5c-2.1-9.9-4.5-21.1-5.4-24.7c-0.9-3.5-2.6-17.4-3.7-30.8c-1.1-13.3-3.7-35.7-6-49.5
		c-3.6-22.6-3.9-34.9-4.7-121.4c-0.7-97,0-116.8,6.9-161.6c0.9-6.2,2.6-24.1,3.7-39.6c1.1-15.7,3.2-35.1,4.7-43
		c1.3-8,3.6-24.3,4.7-36.1c1.3-11.8,3.4-24.5,4.9-28c1.3-3.6,4.3-17.9,6.4-31.6c2.2-13.8,6-31.4,8.4-38.9c2.6-7.5,4.7-15.1,4.7-16.8
		c0-4.7,11-49.5,13.1-53.3c0.9-1.7,3-8.4,4.7-14.9c3.4-13.3,9.5-32.3,12.1-37.9c0.9-2.1,4.5-11.8,7.5-21.5
		c3.2-9.7,7.5-21.5,9.5-26.2c2.2-4.7,4.5-10.1,5.4-12.1c6.5-16.4,31.4-66.7,38.9-79.4c3.6-5.6,8.8-15.1,11.8-20.9
		c3-6,6.2-10.8,6.9-10.8c0.9,0,3-3,4.7-6.5c12.7-26.5,57.5-79.6,91.9-108.4c17.9-14.9,74.2-70.8,96-95.3
		c30.5-34.2,61.7-72.7,98.5-121.4c18.5-24.5,34.8-46.1,36.2-48.4c1.5-2.2,7.8-10.7,14-18.7c6.2-7.8,14-18.3,17.4-23.2
		c3.4-4.9,8.2-10.8,10.6-13.3l4.3-4.3l33.3,6.9c66,13.6,198.8,46.7,206.3,51.4c2.1,1.3,2.1,4.3-0.6,17.2c-1.9,8.6-6.2,30.5-9.7,48.8
		c-3.4,18.3-7.1,34.4-8.2,35.7s-3.6,9.3-5.6,18.1c-5.4,22.8-23.9,77.7-27.8,82.6c-0.9,1.3-2.8,5.6-4.1,9.7
		c-2.2,7.5-21.1,46.3-28.4,58.9c-10.8,18.7-26.9,44.3-29.9,47.6c-1.7,2.1-12.1,15.3-23,29.7c-10.8,14.2-23.2,30.3-27.3,35.5
		c-10.8,13.8-29.7,39.8-36.6,50.6c-3.2,5.2-7.7,12-9.9,14.9c-18.9,26.9-87.8,137.1-102.6,163.9c-2.1,3.9-6.2,10.7-9,14.9
		c-2.8,4.5-7.5,12.5-10.5,17.9c-2.8,5.4-7.3,12.9-9.7,16.6c-2.6,3.7-4.7,7.5-4.7,8.4c0,0.7-3.9,8-8.6,16.1
		c-4.7,7.8-9.3,16.1-10.5,18.1c-1.3,2.1-7.5,12.9-14,24.1c-6.5,11.2-11.8,20.6-11.8,20.9s-2.6,5-6,10.5c-3.2,5.4-8.6,14.9-11.8,21.1
		c-3.4,6.2-11.4,20.9-17.7,32.7c-11.6,21.5-21.3,39.8-32.7,60.7c-8.2,15.3-37.2,71.2-47.1,90.6c-4.5,8.8-8.8,17.2-9.7,18.7
		c-3.7,6-69.1,139.9-74.2,151.9c-3,6.9-6,12.5-6.7,12.5c-0.9,0-1.5,1.3-1.5,2.8c0,2.4-3.5,11-14.2,33.8c-2.4,5.2-4.5,10.1-4.5,10.6
		c0,0.9-18.3,40.4-22.2,48c-9.9,19.1-30.6,54.2-37.9,64.5c-12.5,17.4-29,32.7-35.1,32.7
		C3155.3,30003.9,3151.4,30001.8,3148.4,29998.9z"></path>
	<path id="XMLID_11_" class="st0 OLxnYKPV_35" d="M2206.3,29827.7c-5-1.3-10.5-3-11.6-3.7c-1.3-0.7-9.7-2.8-18.7-4.3c-9.2-1.5-25.2-5.6-36.1-9.2
		c-10.8-3.5-27.5-8.4-37-11c-9.5-2.8-20.9-6.5-25.2-8.4c-4.3-1.9-12.9-4.9-19.1-6.7c-6.2-1.9-12-3.9-13.1-4.7
		c-0.9-0.7-10.3-4.5-20.6-8.2s-22-8.4-26.2-10.5s-13.8-6.2-21.5-9.2c-17.9-6.9-51.6-21.3-58.9-25c-3-1.5-13.6-6.5-23.4-11
		c-32.3-15.3-68-33.1-86.9-43.5c-10.3-5.8-23.7-12.9-29.9-15.9c-6.2-3.2-16.6-9-23.2-13.1c-6.4-4.1-12.3-7.5-13.1-7.5
		c-0.6-0.2-4.1-2.6-7.7-5.6c-3.5-3.2-7.1-5.6-8-5.6s-6-3.4-11-7.5c-5.2-4.1-10.1-7.5-11-7.5c-1.3,0-8.6-5.4-35.1-26.5
		c-15.7-12.3-40.4-36.4-43.3-42c-1.5-3-4.5-8.2-6.9-11.8c-3-4.3-4.1-8.6-3.7-13.1c0.6-5.6,1.7-7.1,9-11.2c8.4-4.7,8.6-4.7,55.3-4.5
		c26,0.2,51.2,1.1,56.1,2.2c9.5,2.1,56.2,8.2,86.5,11.4c9.5,1.1,18.5,2.8,19.8,3.9c1.3,1.1,11.6,3.5,22.6,5.6
		c11.2,1.9,26.7,5.2,34.4,7.5c7.7,2.2,24.8,6.9,38.1,10.5c13.1,3.6,26.2,7.7,29,9c2.6,1.5,10.3,4.3,17,6.4
		c6.7,2.1,17.6,6.2,24.3,9.3c6.7,3,15.1,6.5,18.7,7.8c7.1,2.8,37,17,45.8,21.9c3.2,1.7,12,6.5,19.6,10.7
		c20.2,11,25.6,14.2,35.3,21.9c4.9,3.7,10.8,7.8,13.3,9.2c9.2,4.9,50.8,40,66.3,55.9c16.3,16.6,34,38.7,40.4,50.4
		c1.9,3.7,4.5,8,5.4,9.5c4.3,6.7,13.1,27.8,14.9,36.1c3.2,14.6-0.9,25.6-12.9,33.8c-6.5,4.5-9.7,5.4-23,6
		C2222.6,29829.6,2211.6,29829,2206.3,29827.7z"></path>
	<path id="XMLID_10_" class="st0 OLxnYKPV_36" d="M5468.6,29813.3c-3-0.7-17.8-2.1-32.7-2.6c-34.9-1.3-72.7-3.9-105.6-7.5
		c-14.4-1.5-42-3.4-61.7-4.1c-23.7-0.7-40.7-2.4-51.4-4.7c-8.8-2.1-27.3-5.6-41.1-8c-27.3-4.9-61.8-17.2-71.9-25.6
		c-10.5-8.4-17.8-17.4-17.8-21.1c0.2-5.8,9.2-15.7,20.7-23c13.8-8.6,46.1-24.1,63.9-30.6c7.8-3,17-6.7,20.2-8.2
		c3.2-1.7,12.1-5.2,20-7.7c7.8-2.6,17-6,20-7.3c3.2-1.3,12-4.7,19.6-7.3c14-4.7,49.5-18.9,69.3-27.8l10.5-4.7l19.6,24.7
		c38.3,48,71.2,91.7,108.6,144.6c9,12.5,16.1,22.8,15.7,22.6C5474.4,29815,5471.7,29814.3,5468.6,29813.3z"></path>
	<path id="XMLID_9_" class="st0 OLxnYKPV_37" d="M2819.5,29800.2c-17.6-4.5-26.5-12.1-38.5-32.7c-8.2-14-13.3-28.8-17.9-51.4
		c-1.5-7.7-4.1-18.7-5.8-24.3c-2.4-8-3.4-24.7-4.7-78.5c-1.5-69.3-3.5-97.3-8.2-115.8c-1.5-5.6-3.5-20.6-4.5-32.9
		c-1.1-12.5-3.2-28.6-4.7-35.5c-1.5-7.1-3.6-20.4-4.7-29.7c-0.9-9.2-3.2-20.6-4.9-25.2c-1.7-4.7-4.3-17.6-5.8-29
		c-1.5-11.2-4.3-27.3-6.4-35.5c-1.9-8.2-6.2-29.1-9.3-46.7c-3.2-17.4-6.5-34.2-7.5-37.4c-2.8-9.3-9-38.7-10.3-49.5
		c-0.7-5.6-3.2-17-5.6-25.2c-2.4-8.2-5-19.1-5.6-24.3c-0.7-5-2.8-16.1-4.9-24.3c-1.9-8.2-3.6-17.2-3.6-20.2c0-2.8-0.7-6.5-1.7-8.4
		c-2.8-5-9.2-34.6-12.5-57.2c-1.5-11.2-3.9-22.6-5.2-25.2c-1.5-2.6-3.6-12.3-4.9-21.7c-1.1-9.2-3.4-21.5-4.7-27.1
		c-1.3-5.6-3-14.4-3.7-19.6c-1.9-14-13.6-61.3-17.9-72.5c-6.9-17.9-8.2-20.7-16.4-37.7c-9-18.5-27.1-51.4-41.3-74.7
		c-5-8.2-10.6-17.4-12.3-20.6c-1.7-3-6.9-11.4-11.6-18.7c-4.7-7.1-11-17.2-14.4-22.4c-3.4-5-11.2-18.5-17.8-29.9
		c-6.4-11.2-13.3-22.8-15.1-25.6c-2.1-2.8-3.7-6.9-4.1-9.2c-0.4-4.9-3-4.3,54.7-14.8c62.6-11.4,189.3-29.9,205.3-29.9
		c2.6,0,4.3,3.2,7.7,14.6c2.2,7.8,7.5,23.2,11.2,34c3.9,10.8,8.8,25.6,10.8,32.7c2.1,7.3,7.3,24.1,11.6,37.4
		c4.3,13.5,10.6,34,14.2,45.8c17.2,57.9,39,125.4,46.7,144.8c3.7,9.3,11.2,25.6,16.6,36.4c8.6,17.4,12.9,24.9,23.5,40.5
		c3.5,5.2,29.3,39.1,32.1,42.2c1.3,1.3,4.3,5,6.5,8.6c5.2,7.3,4.9,15.5-1.3,32.1c-3.7,10.3-6.7,26.9-12.5,68.4
		c-2.4,17.8-2.6,44.1-2.2,170c0.6,141.8,0.7,150.6,4.7,179c2.2,16.4,4.9,37.6,5.8,46.7c0.9,9.3,3,21.7,4.7,27.5
		c1.7,5.8,3.9,18.5,5,28c1.3,9.5,4.3,27.8,6.7,40.7c11.4,57.9,10.1,125.7-3.2,157.3c-4.5,10.5-18.9,29.1-23.9,31
		c-1.7,0.6-5.4,2.6-8.2,4.7c-10.1,6.9-27.1,10.8-50.8,11.6C2836.7,29801.7,2823.5,29801.2,2819.5,29800.2z"></path>
	<path id="XMLID_8_" class="st0 OLxnYKPV_38" d="M4172.8,29775c-11.4-4.3-16.4-8.4-28.4-23c-3.9-4.9-9.9-18.3-15.7-35.5
		c-10.8-32.3-3.9-63.2,26.2-117.1c27.3-48.8,84.8-107.8,159-162.9c7.3-5.4,16.4-12.3,20.6-15.3c16.1-12.3,27.1-19.8,70.1-47.8
		c19.8-12.9,43-27.1,44.3-27.1c0.7,0,3-1.7,5-3.5c2.2-2.1,8.6-6.2,14.4-9.2c9.7-5,34.6-18.9,40.9-22.8c12-7.3,29.7-16.8,31.6-16.8
		c1.1,0,2.1-0.7,2.1-1.5c0-0.7,6.9-4.9,15.5-8.8c8.4-4.1,15.7-8,16.3-8.8c3.2-4.1,107.4-55.9,158.8-79c10.8-4.9,26.7-12,35.5-15.9
		c32.3-14.8,50.8-22.6,61.7-26.3l11.2-3.9l24.7,19.4c133,103.7,267.4,229.6,380.2,356.1l30.6,34.6l-8,3.9c-4.5,2.2-9.7,5-11.8,6.2
		c-8.6,5-43.7,20.7-53.3,23.9c-5.6,1.9-11,3.9-12.1,4.7c-2.6,1.9-28.6,10.5-36.4,12.1c-3.6,0.7-8.2,2.4-10.3,3.7
		c-3.9,2.4-30.8,10.8-42,13.1c-3.6,0.7-7.3,2.1-8.4,2.8c-2.4,1.7-34.6,10.5-48.6,13.1c-6.2,1.1-13.8,3.4-17,4.7
		c-3.2,1.5-12.3,3.9-20.6,5.4c-12.1,2.2-26.3,5.2-60.5,13.3c-1.5,0.4-14.2,2.8-28,5.4c-13.8,2.8-34,7.1-44.8,9.5
		c-10.8,2.6-26.7,5.6-35.5,6.5c-23.2,2.8-41.9,5.8-43.9,7.5c-0.9,0.7-12,2.2-24.3,3.6c-12.3,1.3-40.9,4.3-63.5,6.9
		c-22.6,2.4-48.8,4.5-58.3,4.5c-15.5,0-78.3,6.4-84.5,8.4c-1.3,0.6-16.1,1.9-32.7,2.8c-16.4,1.1-33.4,2.8-37.6,3.9
		c-4.1,1.1-15.5,3.2-25.2,4.7c-32.7,5-75.7,12.3-77.2,13.3c-0.7,0.4-17.6,4.1-37.4,8c-19.6,3.9-38.3,8.2-41.5,9.3
		c-3,1.1-15.7,3.7-28,5.6c-12.3,1.9-29.5,4.9-38.3,6.5C4204.2,29781.4,4191,29781.7,4172.8,29775z"></path>
	<path id="XMLID_7_" class="st0 OLxnYKPV_39" d="M2560.2,29710c-26-13.1-77.4-51.2-116.6-86.5c-36.6-32.9-56.6-50.8-63.5-56.8
		c-4.1-3.6-17.9-16.6-30.8-29.1c-31-30.1-62.8-58.9-91.7-83c-5.4-4.7-12.5-10.8-15.7-14c-8.4-8.2-26.7-23.4-37.9-31.6
		c-13.3-9.7-36.6-29.1-37.4-31.2c-0.4-0.9-1.5-1.7-2.4-1.7c-1.7,0-12.7-8-25.8-18.3c-6.5-5.4-21.3-18.3-48-42.4
		c-18.3-16.4-49-48.2-57.7-59.8c-6.9-9.2-16.3-20.2-18.3-21.7c-0.9-0.7-2.6-2.8-3.7-5c-1.3-2.1-7.5-10.5-13.8-18.7
		c-6.5-8.4-11.8-15.5-11.8-16.1s-2.4-4.7-5.6-9.2c-3-4.7-5.6-9.3-5.6-10.5c0-1.1-0.7-2.1-1.9-2.1c-0.9,0-5.2-5.6-9.3-12.5
		c-4.3-7.1-8.6-14.4-9.9-16.4c-16.4-26.9-37.4-65-48-87.8c-4.3-9.2-9-18.9-10.5-21.5c-3.9-6.7-13.3-27.3-14.8-32.1
		c-0.7-2.4-2.4-5.6-3.7-7.1c-1.3-1.5-4.7-8-7.3-14.4c-2.6-6.5-6.9-16.1-9.2-21.5c-2.4-5.4-6-14-7.8-19.2c-1.9-5-5.4-14-8-19.6
		c-2.4-5.6-6.5-15.7-9.2-22.4c-2.4-6.7-6.5-16.6-9-21.9c-2.6-5.4-5.2-12.1-5.8-14.9c-0.7-3-3.7-10.3-6.5-16.6l-5-11.4l8.8-4.3
		c47.5-23.2,168.3-74.5,213.6-90.6l6.7-2.4l20,22c10.8,12.3,22.8,26,26.5,30.3c3.5,4.5,14.8,16.8,24.7,27.5
		c9.9,10.7,19.6,21.5,21.7,24.1c2.1,2.6,5,6.2,6.5,7.7c1.5,1.7,12.5,13.5,24.3,26.3c11.8,12.9,21.9,23.7,22.4,24.3
		c7.7,7.7,45.4,47.6,62.6,66.3c12.3,13.3,29.1,30.8,37.2,39.2c8.2,8.2,19.4,20,25,26.2c5.6,6.2,20,21.3,31.9,33.6
		c12,12.3,31.8,33.3,44.1,46.5c12.3,13.3,32.1,34.2,44.1,46.7c12,12.5,25.6,27.3,30.5,32.9s11.6,12.9,14.9,15.9
		c3.2,3.2,11,12,17,19.6c6.2,7.7,12.1,14.9,13.5,15.9c1.3,1.1,4.3,4.5,6.5,7.8c2.4,3.4,9.5,13.3,16.1,22
		c26,35.7,55.3,88.8,67.8,123.1c3.2,8.2,6.7,16.8,8,18.9c1.3,2.1,4.3,10.8,6.5,19.6c2.4,8.8,5.6,19.6,7.1,24.3
		c2.6,7.8,8.6,39.4,14,72.9c3,18.1,3,77-0.2,96c-5.6,36.8-18.7,68-34.2,82.6C2584.3,29718.4,2577.8,29718.8,2560.2,29710z"></path>
	<path id="XMLID_6_" class="st0 OLxnYKPV_40" d="M1106.8,29588c-2.6-0.6-12.1-2.4-21.5-4.5c-9.2-1.9-34.4-5.2-56.1-7.5
		c-21.5-2.1-44.7-4.9-51.4-5.8c-14.9-2.4-91-1.1-115.7,1.9c-9.5,1.3-17.7,1.9-18.3,1.3c-0.4-0.4,12.1-15.3,27.8-33.1
		c25.4-29,39.2-43.9,88.4-96.2l13.1-14l9.3,3c5.2,1.7,11,3.9,13.1,4.9c2.1,0.9,12.1,4.5,22.4,8c10.3,3.6,27.5,9.7,38.3,13.8
		s29,10.8,40.2,15.1c11.4,4.3,22.6,9,25.2,10.3c2.6,1.5,11,5.2,18.7,8.4c20.7,8.4,72.3,35.1,79.4,41.1c2.1,1.7,8,6,13.1,9.5
		c25.2,17.6,23.7,25.2-7.5,36.6l-18.7,6.9l-47.6,0.6C1132.9,29588.6,1109.4,29588.4,1106.8,29588z"></path>
	<path id="XMLID_5_" class="st0 OLxnYKPV_41" d="M1639.3,29382.5c-10.8-1.5-25.4-4.7-32.7-7.3c-7.1-2.4-21.1-6.7-30.8-9.3
		c-9.7-2.8-18.5-5.6-19.6-6.5c-0.9-0.7-12.3-4.7-25.2-8.4c-12.9-3.9-25.4-8-28-9.3c-2.6-1.1-16.4-5-30.8-8.4s-26.5-6.7-27.1-7.5
		c-0.9-1.3-27.3-6.5-42-8.4c-23-2.8-48.8-7.3-50.6-8.8c-1.1-0.7-19.6-2.4-41.1-3.4c-42.2-1.9-49.5-2.8-62.4-6.4
		c-4.7-1.5-11.8-3.6-15.9-4.7c-19.1-5.2-41.3-12-43.9-13.5c-1.5-0.7-7.8-3.7-14-6.4c-21.3-9.5-23.4-10.7-22.2-12.3
		c1.3-2.4,71.4-60.5,98.8-82.2c100.5-79.6,207.6-153.2,320.2-220.5l40-23.9l4.3,6c9.5,13.3,25.4,37.7,26.9,41.3
		c0.7,2.2,4.7,10.7,8.4,18.9c7.1,15.1,14,36.2,14,42.6c0,5.8,14.2,33.6,20.2,39.8c17.4,17.8,31,26,119.6,70.6
		c19.4,9.7,43.3,32.9,51.4,49.7c8.2,17.4,8.4,33.3,0,50.8c-3.2,6.7-9.3,17.4-13.8,23.4c-10.1,13.6-31.9,34.9-42.2,41.1
		c-4.5,2.6-8,5.2-8,6c0,2.1-43.7,30.1-46.7,30.1c-0.7,0-2.4,1.3-3.7,2.8c-3.5,4.3-40.2,21.1-50.8,23.2
		C1673.6,29385.1,1659.3,29385.3,1639.3,29382.5z"></path>
	<path id="XMLID_4_" class="st0 OLxnYKPV_42" d="M4391.8,29268.9c-23.4-7.7-60-50.3-66-77c-1.9-8.6-1.9-11.8,0.9-21.7
		c3.4-12.5,19.6-44.8,25.6-51.2c1.9-2.1,3.6-4.5,3.6-5.2c0-2.8,15.3-21.5,27.5-33.1c6.9-6.9,21.1-18.9,31.4-26.7
		c10.3-7.8,20.4-15.7,22.4-17.6c9.2-8.4,30.3-21.5,57.9-35.9c16.4-8.6,30.8-16.3,31.9-17.2c1.1-0.7,6.5-3.2,12.1-5
		c5.6-1.9,14.8-5.6,20.6-8.2l10.6-4.9l30.5,18.9c63,38.7,172.5,112.9,170.8,115.7c-0.6,0.7-9.2,3.2-19.2,5.4
		c-55.1,12.7-105.2,25.6-127.4,32.9c-22.6,7.5-54.2,21.9-67.1,30.5c-2.6,1.9-11.2,7.5-18.9,12.5c-7.7,5-20.9,14.9-29.1,22.2
		c-8.4,7.1-17.4,14.8-20.2,16.8s-8.2,6.4-12,9.3c-12.3,10.1-23.5,18.7-32.1,24.3c-4.7,3.2-8.8,6.2-9.3,6.7c-0.6,0.7-4.5,3.2-8.8,5.4
		C4417.6,29270.9,4402.3,29272.2,4391.8,29268.9z"></path>
	<path id="XMLID_3_" class="st0 OLxnYKPV_43" d="M3870.7,29110.8c-3.6-2.1-6.5-5.8-7.3-8.8c-1.5-6,1.9-28.4,5.6-36.8c1.5-3.2,4.1-12.1,5.8-19.8
		c3.9-17,18.3-56.8,28.8-78.8c4.3-9,7.7-16.6,7.7-17.2c0-0.4,4.5-9.9,9.9-20.9c8.6-17.8,13.8-27.3,31.8-56.8
		c2.1-3.6,9.3-14.8,16.1-24.8c6.7-10.3,13.3-19.8,14.2-21.5c1.1-1.7,2.6-3.9,3.4-4.9c31.9-43.2,46.9-62,52.9-67.4
		c1.1-0.9,6.5-7.3,12-14c5.4-6.7,10.8-12.7,12-13.5c2.4-1.3,69.1,23.7,127.2,47.8c45.6,19.1,111.7,49,156.9,70.8l31.6,15.5l-11,8.4
		c-14.8,11.4-29.5,21.7-52.3,36.6c-10.3,6.7-21.1,14-24.3,16.1c-19.1,13.6-58.9,39.4-68.8,44.8c-17,9.2-38.9,22-41.3,23.9
		c-3.2,2.8-54.9,31.2-69.3,38.1c-7.1,3.5-15.1,7.7-17.8,9.2c-6.9,4.1-41.9,19.4-58.9,25.8c-8.2,3-15.9,6.4-17,7.1
		c-2.6,2.2-43.7,17.2-47.8,17.4c-1.7,0.2-2.6,0.9-2.2,1.7c0.6,0.7-2.8,2.2-7.1,3.4c-12.3,3.2-26.5,7.8-28.6,9.3
		c-0.9,0.7-3.9,1.9-6.5,2.4c-2.6,0.4-13.1,3.2-23.4,5.8C3880.6,29115.5,3878.4,29115.7,3870.7,29110.8z"></path>
	<path id="XMLID_2_" class="st0 OLxnYKPV_44" d="M2330.6,28878.9c-4.7-0.9-10.1-2.4-12.1-3.4c-2.1-0.9-8.8-3.6-14.9-6
		c-29-10.8-66.5-35.1-114.9-74c-15.3-12.3-84.6-83-83-84.6c3.9-3.6,119.6-39.8,182.4-57c42-11.6,38.9-10.8,38.9-8.6
		c0,0.7,3,8,6.5,15.7c3.7,7.8,6.7,14.9,6.9,15.7c0.2,0.9,2.1,4.9,4.3,9c2.2,4.1,5.2,10.8,6.5,14.9c1.3,4.1,4.3,11.8,6.5,16.8
		c6.4,14.9,9.9,23.9,11.2,29c0.7,2.6,3.2,10.1,5.6,16.8c2.4,6.7,6.7,23,9.5,36.2c8,38.1,4.7,58.3-11.8,71.9
		C2361.2,28880.6,2349.8,28882.7,2330.6,28878.9z"></path>
	<path id="XMLID_1_" class="st0 OLxnYKPV_45" d="M3106,28867.3c-14-8.6-45-33.1-56.1-44.5c-18.9-19.2-44.8-52.7-44.8-57.7c0-0.9-0.6-1.9-1.5-2.2
		c-3.6-1.5-30.3-46.3-30.3-50.8c0-0.7-1.7-3.6-3.7-6.4c-1.9-2.8-6.2-11.8-9.3-20c-3.4-8.2-7.5-18.3-9.3-22.4s-5.6-14.9-8.4-24.3
		c-2.8-9.2-6.2-19.4-7.5-22.6c-1.5-3.2-4.9-17-7.5-30.8c-2.6-13.8-5.4-26.7-6.4-29c-1.7-3.9-1.3-3.9,30.3-5
		c48.6-1.9,196.9-1.5,242.3,0.6c61.5,2.8,180.7,12,182.7,13.8c0.2,0.4-0.4,4.7-1.5,9.5c-4.7,21.3-31.4,64.5-50.4,81.8
		c-13.6,12.5-67.8,67.8-70.6,72.3c-2.8,4.1-7.3,10.5-29.9,42c-49,68.6-57.7,78.1-86.1,94.7
		C3127.3,28872.8,3115.5,28873.1,3106,28867.3z"></path>
</g>
<style>.OLxnYKPV_0{stroke-dasharray:887 889;stroke-dashoffset:888;animation:OLxnYKPV_draw 2000ms ease-out 0ms forwards;}.OLxnYKPV_1{stroke-dasharray:1163 1165;stroke-dashoffset:1164;animation:OLxnYKPV_draw 2000ms ease-out 0ms forwards;}.OLxnYKPV_2{stroke-dasharray:1303 1305;stroke-dashoffset:1304;animation:OLxnYKPV_draw 2000ms ease-out 0ms forwards;}.OLxnYKPV_3{stroke-dasharray:2310 2312;stroke-dashoffset:2311;animation:OLxnYKPV_draw 2000ms ease-out 0ms forwards;}.OLxnYKPV_4{stroke-dasharray:1458 1460;stroke-dashoffset:1459;animation:OLxnYKPV_draw 2000ms ease-out 0ms forwards;}.OLxnYKPV_5{stroke-dasharray:1055 1057;stroke-dashoffset:1056;animation:OLxnYKPV_draw 2000ms ease-out 0ms forwards;}.OLxnYKPV_6{stroke-dasharray:2340 2342;stroke-dashoffset:2341;animation:OLxnYKPV_draw 2000ms ease-out 0ms forwards;}.OLxnYKPV_7{stroke-dasharray:1728 1730;stroke-dashoffset:1729;animation:OLxnYKPV_draw 2000ms ease-out 0ms forwards;}.OLxnYKPV_8{stroke-dasharray:972 974;stroke-dashoffset:973;animation:OLxnYKPV_draw 2000ms ease-out 0ms forwards;}.OLxnYKPV_9{stroke-dasharray:2880 2882;stroke-dashoffset:2881;animation:OLxnYKPV_draw 2000ms ease-out 0ms forwards;}.OLxnYKPV_10{stroke-dasharray:889 891;stroke-dashoffset:890;animation:OLxnYKPV_draw 2000ms ease-out 0ms forwards;}.OLxnYKPV_11{stroke-dasharray:1118 1120;stroke-dashoffset:1119;animation:OLxnYKPV_draw 2000ms ease-out 0ms forwards;}.OLxnYKPV_12{stroke-dasharray:577 579;stroke-dashoffset:578;animation:OLxnYKPV_draw 2000ms ease-out 0ms forwards;}.OLxnYKPV_13{stroke-dasharray:1841 1843;stroke-dashoffset:1842;animation:OLxnYKPV_draw 2000ms ease-out 0ms forwards;}.OLxnYKPV_14{stroke-dasharray:2205 2207;stroke-dashoffset:2206;animation:OLxnYKPV_draw 2000ms ease-out 0ms forwards;}.OLxnYKPV_15{stroke-dasharray:1968 1970;stroke-dashoffset:1969;animation:OLxnYKPV_draw 2000ms ease-out 0ms forwards;}.OLxnYKPV_16{stroke-dasharray:2054 2056;stroke-dashoffset:2055;animation:OLxnYKPV_draw 2000ms ease-out 0ms forwards;}.OLxnYKPV_17{stroke-dasharray:5546 5548;stroke-dashoffset:5547;animation:OLxnYKPV_draw 2000ms ease-out 0ms forwards;}.OLxnYKPV_18{stroke-dasharray:2769 2771;stroke-dashoffset:2770;animation:OLxnYKPV_draw 2000ms ease-out 0ms forwards;}.OLxnYKPV_19{stroke-dasharray:1948 1950;stroke-dashoffset:1949;animation:OLxnYKPV_draw 2000ms ease-out 0ms forwards;}.OLxnYKPV_20{stroke-dasharray:1136 1138;stroke-dashoffset:1137;animation:OLxnYKPV_draw 2000ms ease-out 0ms forwards;}.OLxnYKPV_21{stroke-dasharray:2192 2194;stroke-dashoffset:2193;animation:OLxnYKPV_draw 2000ms ease-out 0ms forwards;}.OLxnYKPV_22{stroke-dasharray:1632 1634;stroke-dashoffset:1633;animation:OLxnYKPV_draw 2000ms ease-out 0ms forwards;}.OLxnYKPV_23{stroke-dasharray:2655 2657;stroke-dashoffset:2656;animation:OLxnYKPV_draw 2000ms ease-out 0ms forwards;}.OLxnYKPV_24{stroke-dasharray:833 835;stroke-dashoffset:834;animation:OLxnYKPV_draw 2000ms ease-out 0ms forwards;}.OLxnYKPV_25{stroke-dasharray:1465 1467;stroke-dashoffset:1466;animation:OLxnYKPV_draw 2000ms ease-out 0ms forwards;}.OLxnYKPV_26{stroke-dasharray:764 766;stroke-dashoffset:765;animation:OLxnYKPV_draw 2000ms ease-out 0ms forwards;}.OLxnYKPV_27{stroke-dasharray:3022 3024;stroke-dashoffset:3023;animation:OLxnYKPV_draw 2000ms ease-out 0ms forwards;}.OLxnYKPV_28{stroke-dasharray:959 961;stroke-dashoffset:960;animation:OLxnYKPV_draw 2000ms ease-out 0ms forwards;}.OLxnYKPV_29{stroke-dasharray:2346 2348;stroke-dashoffset:2347;animation:OLxnYKPV_draw 2000ms ease-out 0ms forwards;}.OLxnYKPV_30{stroke-dasharray:1666 1668;stroke-dashoffset:1667;animation:OLxnYKPV_draw 2000ms ease-out 0ms forwards;}.OLxnYKPV_31{stroke-dasharray:7334 7336;stroke-dashoffset:7335;animation:OLxnYKPV_draw 2000ms ease-out 0ms forwards;}.OLxnYKPV_32{stroke-dasharray:7418 7420;stroke-dashoffset:7419;animation:OLxnYKPV_draw 2000ms ease-out 0ms forwards;}.OLxnYKPV_33{stroke-dasharray:2836 2838;stroke-dashoffset:2837;animation:OLxnYKPV_draw 2000ms ease-out 0ms forwards;}.OLxnYKPV_34{stroke-dasharray:3360 3362;stroke-dashoffset:3361;animation:OLxnYKPV_draw 2000ms ease-out 0ms forwards;}.OLxnYKPV_35{stroke-dasharray:1532 1534;stroke-dashoffset:1533;animation:OLxnYKPV_draw 2000ms ease-out 0ms forwards;}.OLxnYKPV_36{stroke-dasharray:920 922;stroke-dashoffset:921;animation:OLxnYKPV_draw 2000ms ease-out 0ms forwards;}.OLxnYKPV_37{stroke-dasharray:2893 2895;stroke-dashoffset:2894;animation:OLxnYKPV_draw 2000ms ease-out 0ms forwards;}.OLxnYKPV_38{stroke-dasharray:2765 2767;stroke-dashoffset:2766;animation:OLxnYKPV_draw 2000ms ease-out 0ms forwards;}.OLxnYKPV_39{stroke-dasharray:2662 2664;stroke-dashoffset:2663;animation:OLxnYKPV_draw 2000ms ease-out 0ms forwards;}.OLxnYKPV_40{stroke-dasharray:921 923;stroke-dashoffset:922;animation:OLxnYKPV_draw 2000ms ease-out 0ms forwards;}.OLxnYKPV_41{stroke-dasharray:1768 1770;stroke-dashoffset:1769;animation:OLxnYKPV_draw 2000ms ease-out 0ms forwards;}.OLxnYKPV_42{stroke-dasharray:1122 1124;stroke-dashoffset:1123;animation:OLxnYKPV_draw 2000ms ease-out 0ms forwards;}.OLxnYKPV_43{stroke-dasharray:1364 1366;stroke-dashoffset:1365;animation:OLxnYKPV_draw 2000ms ease-out 0ms forwards;}.OLxnYKPV_44{stroke-dasharray:803 805;stroke-dashoffset:804;animation:OLxnYKPV_draw 2000ms ease-out 0ms forwards;}.OLxnYKPV_45{stroke-dasharray:1254 1256;stroke-dashoffset:1255;animation:OLxnYKPV_draw 2000ms ease-out 0ms forwards;}@keyframes OLxnYKPV_draw{100%{stroke-dashoffset:0;}}@keyframes OLxnYKPV_fade{0%{stroke-opacity:1;}93.54838709677419%{stroke-opacity:1;}100%{stroke-opacity:0;}}#Yggio_logo {fill-opacity: 0;-webkit-animation: 4s ease 0s normal forwards 1 fillIn;animation: 4s ease 0s normal forwards 1 fillIn;}@keyframes fillIn{0%  {stroke-dashoffset:800;} 60%  {stroke-dashoffset:0;fill-opacity:0;}100%{stroke-dashoffset:0;fill-opacity:1;}}@-webkit-keyframes fillIn{0%  {stroke-dashoffset:800;}60%  {stroke-dashoffset:0;fill-opacity:0;}100%{stroke-dashoffset:0;fill-opacity:1;}}</style></svg>
